<svg width="17" height="20" viewBox="0 0 17 20" fill="none" xmlns="http://www.w3.org/2000/svg">
<g clip-path="url(#clip0_1516_285)">
<path fill-rule="evenodd" clip-rule="evenodd" d="M7.96796 1.93415C8.1177 1.78879 8.30578 1.70929 8.49992 1.70929C8.69405 1.70929 8.88214 1.78879 9.03188 1.93415C10.0498 2.92988 10.9824 4.04046 11.8163 5.24999C12.978 6.94915 14.1666 9.25499 14.1666 11.6667C14.1666 13.4348 13.5696 15.1305 12.5069 16.3807C11.4442 17.6309 10.0028 18.3333 8.49992 18.3333C6.99703 18.3333 5.55569 17.6309 4.49298 16.3807C3.43027 15.1305 2.83325 13.4348 2.83325 11.6667C2.83325 9.25499 4.02184 6.94915 5.1835 5.24915C6.01727 4.03996 6.95034 2.92966 7.96796 1.93415Z" fill="#A1B5D2"/>
</g>
<defs>
<clipPath id="clip0_1516_285">
<rect width="17" height="20" fill="white"/>
</clipPath>
</defs>
</svg>
