<svg width="22" height="31" viewBox="0 0 22 31" fill="none" xmlns="http://www.w3.org/2000/svg">
<g clip-path="url(#clip0_1221_231)" filter="url(#filter0_d_1221_231)">
<path fill-rule="evenodd" clip-rule="evenodd" d="M10.3741 2.41768C10.5503 2.23598 10.7715 2.1366 10.9999 2.1366C11.2283 2.1366 11.4496 2.23598 11.6258 2.41768C12.8233 3.66234 13.9205 5.05055 14.9016 6.56247C16.2683 8.68643 17.6666 11.5687 17.6666 14.5833C17.6666 16.7934 16.9642 18.9131 15.714 20.4759C14.4637 22.0387 12.768 22.9166 10.9999 22.9166C9.23181 22.9166 7.53612 22.0387 6.28587 20.4759C5.03563 18.9131 4.33325 16.7934 4.33325 14.5833C4.33325 11.5687 5.73159 8.68642 7.09825 6.56142C8.07916 5.04993 9.17688 3.66206 10.3741 2.41768Z" fill="#A1B5D2"/>
</g>
<defs>
<filter id="filter0_d_1221_231" x="-3" y="0" width="28" height="33" filterUnits="userSpaceOnUse" color-interpolation-filters="sRGB">
<feFlood flood-opacity="0" result="BackgroundImageFix"/>
<feColorMatrix in="SourceAlpha" type="matrix" values="0 0 0 0 0 0 0 0 0 0 0 0 0 0 0 0 0 0 127 0" result="hardAlpha"/>
<feOffset dy="4"/>
<feGaussianBlur stdDeviation="2"/>
<feComposite in2="hardAlpha" operator="out"/>
<feColorMatrix type="matrix" values="0 0 0 0 0 0 0 0 0 0 0 0 0 0 0 0 0 0 0.25 0"/>
<feBlend mode="normal" in2="BackgroundImageFix" result="effect1_dropShadow_1221_231"/>
<feBlend mode="normal" in="SourceGraphic" in2="effect1_dropShadow_1221_231" result="shape"/>
</filter>
<clipPath id="clip0_1221_231">
<rect width="20" height="25" fill="white" transform="translate(1)"/>
</clipPath>
</defs>
</svg>
