<svg width="39" height="39" viewBox="0 0 39 39" fill="none" xmlns="http://www.w3.org/2000/svg">
<g clip-path="url(#clip0_1221_238)">
<path d="M32.5 14.6251C32.931 14.6251 33.3443 14.7963 33.649 15.101C33.9538 15.4057 34.125 15.8191 34.125 16.2501V17.8751C34.125 21.3229 32.7554 24.6295 30.3174 27.0674C27.8794 29.5054 24.5728 30.875 21.125 30.875H15.2977L16.5864 32.1637C16.8824 32.4702 17.0462 32.8806 17.0425 33.3067C17.0388 33.7328 16.8679 34.1403 16.5666 34.4416C16.2653 34.7429 15.8577 34.9138 15.4317 34.9175C15.0056 34.9212 14.5951 34.7574 14.2886 34.4614L10.2326 30.4054C9.98083 30.1574 9.81704 29.8338 9.76625 29.4841L9.75 29.2354C9.75266 28.8553 9.889 28.4883 10.1351 28.1987L10.2261 28.1012L14.2886 24.0387C14.5951 23.7427 15.0056 23.5789 15.4317 23.5826C15.8577 23.5863 16.2653 23.7572 16.5666 24.0585C16.8679 24.3598 17.0388 24.7673 17.0425 25.1934C17.0462 25.6195 16.8824 26.0299 16.5864 26.3364L15.2977 27.6251H21.125C23.7109 27.6251 26.1908 26.5978 28.0193 24.7693C29.8478 22.9409 30.875 20.4609 30.875 17.8751V16.2501C30.875 15.8191 31.0462 15.4057 31.351 15.101C31.6557 14.7963 32.069 14.6251 32.5 14.6251ZM24.7114 4.53868L28.7739 8.60118C29.0785 8.90591 29.2497 9.31916 29.2497 9.75005C29.2497 10.1809 29.0785 10.5942 28.7739 10.8989L24.7114 14.9614C24.5615 15.1166 24.3822 15.2404 24.1839 15.3256C23.9857 15.4108 23.7724 15.4556 23.5567 15.4575C23.3409 15.4593 23.1269 15.4182 22.9272 15.3365C22.7275 15.2548 22.5461 15.1341 22.3935 14.9816C22.2409 14.829 22.1202 14.6476 22.0385 14.4479C21.9568 14.2481 21.9157 14.0342 21.9176 13.8184C21.9195 13.6026 21.9643 13.3894 22.0495 13.1911C22.1346 12.9929 22.2584 12.8136 22.4136 12.6637L23.7023 11.3751H17.875C15.2891 11.3751 12.8092 12.4023 10.9807 14.2308C9.15223 16.0592 8.125 18.5392 8.125 21.1251V22.7501C8.125 23.181 7.95379 23.5944 7.64905 23.8991C7.3443 24.2038 6.93098 24.3751 6.5 24.3751C6.06902 24.3751 5.6557 24.2038 5.35095 23.8991C5.0462 23.5944 4.875 23.181 4.875 22.7501V21.1251C4.875 17.6772 6.24464 14.3706 8.68261 11.9327C11.1206 9.49469 14.4272 8.12505 17.875 8.12505H23.7023L22.4136 6.83643C22.1176 6.52995 21.9538 6.11947 21.9575 5.6934C21.9612 5.26733 22.1321 4.85976 22.4334 4.55847C22.7347 4.25718 23.1423 4.08628 23.5683 4.08258C23.9944 4.07888 24.4049 4.24267 24.7114 4.53868Z" fill="#614C4C"/>
</g>
<defs>
<clipPath id="clip0_1221_238">
<rect width="39" height="39" fill="white"/>
</clipPath>
</defs>
</svg>
