<svg width="23" height="24" viewBox="0 0 23 24" fill="none" xmlns="http://www.w3.org/2000/svg">
<g clip-path="url(#clip0_1714_410)">
<path fill-rule="evenodd" clip-rule="evenodd" d="M8.62509 1.99994C9.35842 1.9999 10.064 2.29226 10.5976 2.81722C11.1311 3.34218 11.4523 4.06005 11.4953 4.82394L11.5001 4.99994V5.56794C11.6618 5.48052 11.844 5.44294 12.0254 5.45958C12.2068 5.47623 12.38 5.54642 12.5246 5.66194L12.6194 5.74894C12.7763 5.90953 12.8756 6.12151 12.9005 6.34936C12.9255 6.57721 12.8746 6.80708 12.7564 7.00045C12.6383 7.19383 12.46 7.33895 12.2515 7.41149C12.043 7.48404 11.817 7.47961 11.6113 7.39894L11.5001 7.34794V9.85894C11.5068 9.90594 11.5097 9.95294 11.5097 10.0009L11.5068 10.0729L11.5001 10.1429V12.6479C11.6935 12.539 11.9169 12.5028 12.1329 12.5453C12.3489 12.5879 12.5443 12.7066 12.6864 12.8815C12.8284 13.0565 12.9086 13.2771 12.9133 13.5064C12.918 13.7357 12.8471 13.9597 12.7124 14.1409L12.6233 14.2449C13.1361 15.0552 13.4117 16.0037 13.4165 16.9746C13.4213 17.9456 13.1551 18.897 12.6503 19.7127C12.1456 20.5284 11.4241 21.1731 10.5741 21.5681C9.72403 21.9631 8.78216 22.0912 7.86347 21.9369C6.94477 21.7826 6.08901 21.3525 5.40066 20.6992C4.71232 20.0458 4.22117 19.1975 3.9872 18.2577C3.75323 17.3179 3.78655 16.3274 4.08309 15.407C4.37964 14.4867 4.92658 13.6763 5.65714 13.0749C5.68223 13.055 5.70477 13.0318 5.72422 13.0059L5.75009 12.9559V4.99994C5.75009 4.20429 6.05299 3.44123 6.59216 2.87862C7.13133 2.31601 7.8626 1.99994 8.62509 1.99994ZM8.62509 3.99994C8.39037 3.99997 8.16381 4.0899 7.9884 4.25265C7.81299 4.41541 7.70093 4.63969 7.67347 4.88294L7.66676 4.99994V12.9579C7.66676 13.6329 7.3438 14.1839 6.95376 14.5479L6.84547 14.6439C6.38228 15.0248 6.04255 15.5451 5.87234 16.1343C5.70212 16.7235 5.70966 17.353 5.89392 17.9376C6.07819 18.5221 6.43027 19.0334 6.90243 19.4021C7.37459 19.7708 7.94398 19.9791 8.53341 19.9987C9.12284 20.0183 9.70378 19.8483 10.1975 19.5117C10.6912 19.1751 11.0737 18.6882 11.2933 18.1171C11.5129 17.546 11.5588 16.9182 11.4249 16.3189C11.2909 15.7196 10.9836 15.1778 10.5446 14.7669L10.4047 14.6439C10.0041 14.3139 9.64764 13.7909 9.59109 13.1389L9.58343 12.9599V4.99994C9.58343 4.73472 9.48246 4.48037 9.30274 4.29283C9.12302 4.1053 8.87926 3.99994 8.62509 3.99994ZM15.3334 13.9899C15.5683 13.99 15.795 14.0801 15.9704 14.243C16.1458 14.406 16.2578 14.6305 16.2851 14.8739L16.2918 14.9999C16.2915 15.2548 16.198 15.5 16.0303 15.6853C15.8626 15.8706 15.6334 15.9822 15.3896 15.9971C15.1458 16.012 14.9056 15.9293 14.7183 15.7657C14.531 15.6021 14.4107 15.37 14.3818 15.1169L14.3751 14.9899C14.3751 14.7247 14.4761 14.4704 14.6558 14.2828C14.8355 14.0953 15.0793 13.9899 15.3334 13.9899ZM19.3968 12.8199C19.571 12.9987 19.6732 13.2402 19.6825 13.4949C19.6918 13.7497 19.6075 13.9986 19.4468 14.1907C19.2861 14.3827 19.0612 14.5035 18.818 14.5283C18.5748 14.5531 18.3317 14.48 18.1385 14.3239L18.0407 14.2339C17.8662 14.0453 17.7696 13.7927 17.7717 13.5305C17.7739 13.2683 17.8747 13.0175 18.0524 12.8321C18.2301 12.6467 18.4704 12.5415 18.7217 12.5393C18.973 12.537 19.216 12.6378 19.3968 12.8199ZM15.3334 6.99994C16.0959 6.99994 16.8272 7.31601 17.3664 7.87862C17.9055 8.44123 18.2084 9.20429 18.2084 9.99994C18.2084 10.7956 17.9055 11.5587 17.3664 12.1213C16.8272 12.6839 16.0959 12.9999 15.3334 12.9999C14.5709 12.9999 13.8397 12.6839 13.3005 12.1213C12.7613 11.5587 12.4584 10.7956 12.4584 9.99994C12.4584 9.20429 12.7613 8.44123 13.3005 7.87862C13.8397 7.31601 14.5709 6.99994 15.3334 6.99994ZM15.3334 8.99994C15.0793 8.99994 14.8355 9.1053 14.6558 9.29283C14.4761 9.48037 14.3751 9.73472 14.3751 9.99994C14.3751 10.2652 14.4761 10.5195 14.6558 10.707C14.8355 10.8946 15.0793 10.9999 15.3334 10.9999C15.5876 10.9999 15.8314 10.8946 16.0111 10.707C16.1908 10.5195 16.2918 10.2652 16.2918 9.99994C16.2918 9.73472 16.1908 9.48037 16.0111 9.29283C15.8314 9.1053 15.5876 8.99994 15.3334 8.99994ZM20.1251 8.99994C20.3694 9.00022 20.6043 9.09782 20.7819 9.27279C20.9595 9.44776 21.0664 9.68689 21.0807 9.94133C21.095 10.1958 21.0157 10.4463 20.8589 10.6418C20.7022 10.8372 20.4798 10.9628 20.2372 10.9929L20.1155 10.9999C19.8713 10.9997 19.6363 10.9021 19.4587 10.7271C19.2811 10.5521 19.1742 10.313 19.1599 10.0585C19.1456 9.8041 19.2249 9.55356 19.3817 9.35811C19.5385 9.16265 19.7608 9.03704 20.0034 9.00694L20.1251 8.99994ZM19.4025 5.75594C19.5675 5.92813 19.6666 6.15723 19.6813 6.40026C19.6959 6.64328 19.6251 6.88354 19.4821 7.07594L19.3958 7.17694C19.2233 7.35629 18.9919 7.46041 18.7486 7.46817C18.5052 7.47592 18.2681 7.38672 18.0855 7.21869C17.9029 7.05066 17.7884 6.81639 17.7653 6.56346C17.7422 6.31054 17.8122 6.05793 17.9612 5.85694L18.0474 5.75694C18.2271 5.56947 18.4709 5.46415 18.725 5.46415C18.9791 5.46415 19.2228 5.56847 19.4025 5.75594ZM15.3334 3.98994C15.5683 3.99 15.795 4.08006 15.9704 4.24303C16.1458 4.40599 16.2578 4.63051 16.2851 4.87394L16.2918 4.99994C16.2915 5.25482 16.198 5.49997 16.0303 5.68531C15.8626 5.87064 15.6334 5.98217 15.3896 5.99711C15.1458 6.01205 14.9056 5.92926 14.7183 5.76567C14.531 5.60208 14.4107 5.37003 14.3818 5.11694L14.3751 4.98994C14.3751 4.72472 14.4761 4.47037 14.6558 4.28283C14.8355 4.0953 15.0793 3.98994 15.3334 3.98994Z" fill="#974242"/>
</g>
<defs>
<clipPath id="clip0_1714_410">
<rect width="23" height="24" fill="white"/>
</clipPath>
</defs>
</svg>
