<svg xmlns="http://www.w3.org/2000/svg" fill="none" viewBox="-0.5 -0.5 24 24" height="24" width="24" id="Door-Open--Streamline-Rounded----Material-Symbols.svg">
  <path fill="#000" d="M10.545979166666667 12.21875C10.750727083333333 12.21875 10.921022916666667 12.149414583333334 11.056770833333333 12.010791666666666C11.19251875 11.872312500000001 11.260416666666668 11.700627083333334 11.260416666666668 11.4956875C11.260416666666668 11.290939583333333 11.19108125 11.120643750000001 11.052458333333334 10.984895833333335C10.913979166666667 10.849147916666666 10.742293750000002 10.78125 10.537354166666667 10.78125C10.332606250000001 10.78125 10.162310416666667 10.850585416666668 10.0265625 10.989208333333334C9.890814583333334 11.1276875 9.822916666666668 11.299372916666666 9.822916666666668 11.504312500000001C9.822916666666668 11.709060416666667 9.892252083333334 11.87935625 10.030875000000002 12.015104166666667C10.169354166666666 12.150852083333334 10.341039583333334 12.21875 10.545979166666667 12.21875ZM6.229166666666667 20.125V18.6875L12.9375 17.513541666666665V6.348958333333334C12.9375 6.12533125 12.877604166666668 5.9296875 12.7578125 5.761979166666667C12.638020833333334 5.594270833333334 12.474289583333334 5.494460416666667 12.266666666666667 5.4625L6.229166666666667 4.528125V3.1145833333333335L12.602083333333335 4.216666666666667C13.113210416666668 4.296529375 13.536458333333334 4.5353125 13.871875000000001 4.933020833333334C14.207291666666666 5.330729166666667 14.375 5.79470625 14.375 6.325V17.489583333333336C14.375 17.835541666666668 14.261772916666667 18.1426875 14.035270833333334 18.411020833333335C13.80876875 18.679497916666666 13.52270625 18.843564583333333 13.177083333333334 18.903125000000003L6.229166666666667 20.125ZM6.229166666666667 18.6875H16.770833333333336V4.552083333333334H6.229166666666667V4.528125V18.6875ZM3.59375 20.125C3.3901041666666667 20.125 3.219439375 20.055664583333336 3.0817604166666666 19.91704166666667C2.943918541666667 19.7785625 2.875 19.606877083333334 2.875 19.4019375C2.875 19.197189583333333 2.943918541666667 19.026893750000003 3.0817604166666666 18.891145833333333C3.219439375 18.755397916666666 3.3901041666666667 18.6875 3.59375 18.6875H4.791666666666667V4.552083333333334C4.791666666666667 4.156770833333334 4.932445833333333 3.818321041666667 5.214052083333334 3.536729166666667C5.495466666666667 3.2553002083333333 5.833854166666668 3.1145833333333335 6.229166666666667 3.1145833333333335H16.770833333333336C17.166145833333335 3.1145833333333335 17.50458125 3.2553002083333333 17.7861875 3.536729166666667C18.067602083333334 3.818321041666667 18.208333333333336 4.156770833333334 18.208333333333336 4.552083333333334V18.6875H19.40625C19.609895833333333 18.6875 19.78062291666667 18.756835416666668 19.918479166666668 18.895458333333334C20.05614375 19.0339375 20.125 19.205622916666666 20.125 19.4105625C20.125 19.61531041666667 20.05614375 19.78560625 19.918479166666668 19.921354166666667C19.78062291666667 20.057102083333334 19.609895833333333 20.125 19.40625 20.125H3.59375Z" stroke-width="1"></path>
</svg>