<svg width="39" height="21" viewBox="0 0 39 21" fill="none" xmlns="http://www.w3.org/2000/svg">
<rect width="38.9098" height="20.3813" rx="9.26425" fill="#A39090"/>
<path d="M14.0515 6.6981H18.0229V8.06074H14.0515V6.6981ZM8.49611 5.85955H14.3776V7.15231H8.49611V5.85955ZM10.0334 8.27037H12.8402V9.51655H10.0334V8.27037ZM10.0334 10.6928H12.8402V11.939H10.0334V10.6928ZM17.6386 6.6981H17.8832L18.1278 6.66316L19.0362 6.88444C18.582 11.6013 17.0563 14.4663 14.4242 16.0735C14.2145 15.7125 13.8186 15.1884 13.5041 14.9205C15.8217 13.7093 17.2543 10.8442 17.6386 7.00091V6.6981ZM15.4141 8.09568C15.9848 11.1238 17.231 13.6976 19.4671 14.9089C19.1526 15.1767 18.7217 15.7125 18.5004 16.0735C16.0547 14.5944 14.8085 11.8691 14.0748 8.3519L15.4141 8.09568ZM9.29972 6.39529H10.6274V14.0121H9.29972V6.39529ZM12.2929 6.39529H13.6439V16.1434H12.2929V6.39529ZM8.22824 13.4996C9.38124 13.3715 11.1166 13.1386 12.7587 12.9057L12.8402 14.1751C11.3262 14.443 9.70734 14.6992 8.48446 14.8856L8.22824 13.4996ZM24.9409 10.623H29.553V11.7993H24.9409V10.623ZM24.9293 12.6727H29.553V13.8374H24.9293V12.6727ZM29.4365 5.47522L30.7991 5.95272C30.4148 6.76798 29.9839 7.59488 29.6228 8.15391L28.4116 7.6997C28.761 7.10573 29.2036 6.18565 29.4365 5.47522ZM23.6482 6.08084L24.8245 5.55674C25.2903 6.1973 25.7911 7.05914 25.9658 7.65311L24.708 8.24708C24.5566 7.65311 24.1024 6.75633 23.6482 6.08084ZM24.0092 8.45672H29.5762V9.76112H25.3835V16.1318H24.0092V8.45672ZM28.924 8.45672H30.2867V14.6294C30.2867 15.2932 30.1586 15.6659 29.7277 15.8872C29.2851 16.0968 28.6562 16.1085 27.7827 16.1085C27.7245 15.7358 27.5381 15.1651 27.3634 14.8041C27.8992 14.8273 28.5164 14.8273 28.6911 14.8273C28.8658 14.8157 28.924 14.7691 28.924 14.6177V8.45672ZM26.4899 5.1957H27.8992V9.3302H26.4899V5.1957ZM20.5153 6.27883L21.3305 5.30052C22.0526 5.64992 22.9727 6.1973 23.4269 6.63987L22.5534 7.71134C22.1458 7.28042 21.2374 6.66316 20.5153 6.27883ZM19.9795 9.37679L20.7715 8.38684C21.5052 8.72459 22.4486 9.28362 22.9145 9.72619L22.0759 10.821C21.645 10.3784 20.7249 9.76112 19.9795 9.37679ZM20.3056 15.1884C20.8763 14.3033 21.6799 12.8242 22.3088 11.4615L23.3337 12.3001C22.8096 13.5579 22.1574 14.9089 21.5285 16.0852L20.3056 15.1884Z" fill="#F3EBEB"/>
</svg>
