<svg id="Home--Streamline-Carbon.svg" xmlns="http://www.w3.org/2000/svg" viewBox="-0.5 -0.5 24 24" height="24" width="24"><desc>Home Streamline Icon: https://streamlinehq.com</desc><defs></defs><path id="_Transparent_Rectangle_" d="M0 0h23v23H0Z" fill="none" stroke-width="1"></path><path d="M11.940090625000002 1.59116875a0.7259375 0.7259375 0 0 0 -0.8931906249999999 0L0.71875 9.645193749999999l0.8931906249999999 1.1296593750000001L2.875 9.790021875V18.6875a1.4404468750000001 1.4404468750000001 0 0 0 1.4375 1.4375h14.375a1.440159375 1.440159375 0 0 0 1.4375 -1.4375V9.7965625L21.388059375 10.78125 22.28125 9.651518750000001ZM12.9375 18.6875h-2.875v-5.75h2.875Zm1.4375 0v-5.75a1.439153125 1.439153125 0 0 0 -1.4375 -1.4375h-2.875a1.4389374999999998 1.4389374999999998 0 0 0 -1.4375 1.4375v5.75H4.3125V8.669203125000001l7.1875 -5.5990625 7.1875 5.606609375000001V18.6875Z" stroke-width="1"></path></svg>