<svg xmlns="http://www.w3.org/2000/svg" fill="none" viewBox="-0.5 -0.5 24 24" height="24" width="24" id="Business-Center--Streamline-Rounded----Material-Symbols.svg">
  <path fill="#000" d="M3.354166666666667 20.125C2.9708333333333337 20.125 2.635416666666667 19.981250000000003 2.347916666666667 19.69375C2.060416666666667 19.40625 1.9166666666666667 19.070833333333333 1.9166666666666667 18.6875V7.1875C1.9166666666666667 6.804166666666666 2.060416666666667 6.46875 2.347916666666667 6.18125C2.635416666666667 5.893750000000001 2.9708333333333337 5.75 3.354166666666667 5.75H7.666666666666667V3.354166666666667C7.666666666666667 2.9708333333333337 7.810416666666668 2.635416666666667 8.097916666666666 2.347916666666667C8.385416666666668 2.060416666666667 8.720833333333333 1.9166666666666667 9.104166666666668 1.9166666666666667H13.895833333333334C14.279166666666667 1.9166666666666667 14.614583333333334 2.060416666666667 14.902083333333335 2.347916666666667C15.189583333333333 2.635416666666667 15.333333333333334 2.9708333333333337 15.333333333333334 3.354166666666667V5.75H19.645833333333336C20.029166666666665 5.75 20.364583333333336 5.893750000000001 20.652083333333334 6.18125C20.939583333333335 6.46875 21.083333333333336 6.804166666666666 21.083333333333336 7.1875V18.6875C21.083333333333336 19.070833333333333 20.939583333333335 19.40625 20.652083333333334 19.69375C20.364583333333336 19.981250000000003 20.029166666666665 20.125 19.645833333333336 20.125H3.354166666666667ZM9.104166666666668 5.75H13.895833333333334V3.354166666666667H9.104166666666668V5.75ZM19.645833333333336 14.111458333333333H13.680208333333335V14.834520833333334C13.680208333333335 15.03926875 13.611208333333334 15.209564583333334 13.473208333333334 15.3453125C13.335208333333332 15.481060416666669 13.164241666666667 15.548958333333335 12.960260416666667 15.548958333333335H10.080947916666666C9.876966666666666 15.548958333333335 9.707102083333332 15.480054166666665 9.571354166666667 15.342197916666668C9.435606250000001 15.204533333333334 9.367708333333335 15.033854166666668 9.367708333333335 14.830208333333333V14.111458333333333H3.354166666666667V18.6875H19.645833333333336V14.111458333333333ZM10.805208333333335 14.111458333333333H12.242708333333335V12.673958333333333H10.805208333333335V14.111458333333333ZM3.354166666666667 12.673958333333333H9.367708333333335V11.950895833333334C9.367708333333335 11.746147916666667 9.436708333333334 11.575852083333334 9.574708333333334 11.440104166666668C9.712708333333333 11.30435625 9.883675 11.236458333333333 10.08765625 11.236458333333333H12.96696875C13.170950000000001 11.236458333333333 13.340814583333334 11.305314583333333 13.4765625 11.442979166666667C13.612310416666668 11.580835416666668 13.680208333333335 11.7515625 13.680208333333335 11.955208333333333V12.673958333333333H19.645833333333336V7.1875H3.354166666666667V12.673958333333333Z" stroke-width="1"></path>
</svg>