<svg width="18" height="17" viewBox="0 0 18 17" fill="none" xmlns="http://www.w3.org/2000/svg">
<g clip-path="url(#clip0_1516_280)">
<path fill-rule="evenodd" clip-rule="evenodd" d="M4.5 2.83344C4.20453 2.83344 3.91194 2.8884 3.63896 2.99519C3.36598 3.10198 3.11794 3.25851 2.90901 3.45583C2.70008 3.65316 2.53434 3.88742 2.42127 4.14523C2.3082 4.40305 2.25 4.67938 2.25 4.95844C2.25 5.23749 2.3082 5.51382 2.42127 5.77164C2.53434 6.02945 2.70008 6.26371 2.90901 6.46104C3.11794 6.65836 3.36598 6.81489 3.63896 6.92168C3.91194 7.02847 4.20453 7.08344 4.5 7.08344C5.09674 7.08344 5.66903 6.85955 6.09099 6.46104C6.51295 6.06252 6.75 5.52202 6.75 4.95844C6.75 4.39485 6.51295 3.85435 6.09099 3.45583C5.66903 3.05732 5.09674 2.83344 4.5 2.83344ZM3.75 4.95844C3.75 4.77057 3.82902 4.59041 3.96967 4.45757C4.11032 4.32473 4.30109 4.2501 4.5 4.2501C4.69891 4.2501 4.88968 4.32473 5.03033 4.45757C5.17098 4.59041 5.25 4.77057 5.25 4.95844C5.25 5.1463 5.17098 5.32646 5.03033 5.4593C4.88968 5.59214 4.69891 5.66677 4.5 5.66677C4.30109 5.66677 4.11032 5.59214 3.96967 5.4593C3.82902 5.32646 3.75 5.1463 3.75 4.95844ZM11.625 2.83344C10.7299 2.83344 9.87145 3.16926 9.23851 3.76703C8.60558 4.3648 8.25 5.17556 8.25 6.02094V10.9793C8.25 11.3979 8.3373 11.8123 8.50691 12.1991C8.67652 12.5858 8.92512 12.9372 9.23851 13.2332C9.87145 13.8309 10.7299 14.1668 11.625 14.1668H12.375C13.2701 14.1668 14.1285 13.8309 14.7615 13.2332C15.3944 12.6354 15.75 11.8246 15.75 10.9793V10.6251C15.75 10.4372 15.671 10.2571 15.5303 10.1242C15.3897 9.9914 15.1989 9.91677 15 9.91677C14.8011 9.91677 14.6103 9.9914 14.4697 10.1242C14.329 10.2571 14.25 10.4372 14.25 10.6251V10.9793C14.25 11.4489 14.0525 11.8993 13.7008 12.2314C13.3492 12.5635 12.8723 12.7501 12.375 12.7501H11.625C11.1277 12.7501 10.6508 12.5635 10.2992 12.2314C9.94754 11.8993 9.75 11.4489 9.75 10.9793V6.02094C9.75 5.55128 9.94754 5.10086 10.2992 4.76877C10.6508 4.43667 11.1277 4.2501 11.625 4.2501H12.375C12.8723 4.2501 13.3492 4.43667 13.7008 4.76877C14.0525 5.10086 14.25 5.55128 14.25 6.02094V6.3751C14.25 6.56296 14.329 6.74313 14.4697 6.87597C14.6103 7.00881 14.8011 7.08344 15 7.08344C15.1989 7.08344 15.3897 7.00881 15.5303 6.87597C15.671 6.74313 15.75 6.56296 15.75 6.3751V6.02094C15.75 5.17556 15.3944 4.3648 14.7615 3.76703C14.1285 3.16926 13.2701 2.83344 12.375 2.83344H11.625Z" fill="black"/>
</g>
<defs>
<clipPath id="clip0_1516_280">
<rect width="18" height="17" fill="white"/>
</clipPath>
</defs>
</svg>
