<svg width="23" height="23" viewBox="0 0 23 23" fill="none" xmlns="http://www.w3.org/2000/svg">
<g clip-path="url(#clip0_2061_449)">
<path fill-rule="evenodd" clip-rule="evenodd" d="M17.7233 3.6426C19.731 4.81272 21.1436 7.18843 21.0813 9.95993C21.0037 13.4195 18.3117 16.4708 13.7223 19.1963C13.0419 19.6008 12.325 20.125 11.4999 20.125C10.6901 20.125 9.94261 19.5912 9.27657 19.1954C4.68903 16.4708 1.99611 13.4186 1.91849 9.95993C1.85619 7.18843 3.26878 4.81368 5.27648 3.6426C7.15482 2.54914 9.51423 2.54243 11.4999 4.15722C13.4856 2.54243 15.845 2.54818 17.7233 3.6426ZM16.7583 5.29955C15.4224 4.52139 13.7529 4.54918 12.3078 6.0116C12.202 6.11817 12.0761 6.20275 11.9374 6.26047C11.7988 6.31818 11.6501 6.3479 11.4999 6.3479C11.3497 6.3479 11.201 6.31818 11.0624 6.26047C10.9237 6.20275 10.7978 6.11817 10.692 6.0116C9.24686 4.54918 7.57744 4.52139 6.24153 5.29955C4.85769 6.10647 3.78819 7.81805 3.83515 9.91872C3.88882 12.3251 5.79015 14.8963 10.256 17.549C10.647 17.7818 11.0552 18.0799 11.4999 18.2035C11.9446 18.0799 12.3528 17.7818 12.7438 17.549C17.2097 14.8963 19.111 12.3261 19.1646 9.91776C19.2126 7.81901 18.1421 6.10647 16.7583 5.29955Z" fill="#737373"/>
</g>
<defs>
<clipPath id="clip0_2061_449">
<rect width="23" height="23" fill="white"/>
</clipPath>
</defs>
</svg>
