<svg width="25" height="25" viewBox="0 0 25 25" fill="none" xmlns="http://www.w3.org/2000/svg">
<path d="M12.875 3.125C10.9466 3.125 9.06157 3.69683 7.45819 4.76817C5.85482 5.83951 4.60513 7.36226 3.86718 9.14384C3.12922 10.9254 2.93614 12.8858 3.31235 14.7771C3.68855 16.6684 4.61715 18.4057 5.98071 19.7693C7.34428 21.1329 9.08156 22.0615 10.9729 22.4377C12.8642 22.8139 14.8246 22.6208 16.6062 21.8828C18.3877 21.1449 19.9105 19.8952 20.9818 18.2918C22.0532 16.6884 22.625 14.8034 22.625 12.875C22.6223 10.29 21.5942 7.81161 19.7663 5.98372C17.9384 4.15584 15.46 3.12773 12.875 3.125ZM12.875 21.125C11.2433 21.125 9.64826 20.6411 8.29155 19.7346C6.93484 18.8281 5.87742 17.5396 5.253 16.0321C4.62858 14.5246 4.4652 12.8658 4.78353 11.2655C5.10185 9.66516 5.88759 8.19515 7.04137 7.04137C8.19516 5.88759 9.66517 5.10185 11.2655 4.78352C12.8659 4.46519 14.5247 4.62857 16.0321 5.25299C17.5396 5.87742 18.8281 6.93484 19.7346 8.29155C20.6411 9.64825 21.125 11.2433 21.125 12.875C21.1225 15.0623 20.2525 17.1593 18.7059 18.7059C17.1593 20.2525 15.0623 21.1225 12.875 21.125ZM17.375 12.875C17.375 13.0739 17.296 13.2647 17.1553 13.4053C17.0147 13.546 16.8239 13.625 16.625 13.625H13.625V16.625C13.625 16.8239 13.546 17.0147 13.4053 17.1553C13.2647 17.296 13.0739 17.375 12.875 17.375C12.6761 17.375 12.4853 17.296 12.3447 17.1553C12.204 17.0147 12.125 16.8239 12.125 16.625V13.625H9.125C8.92609 13.625 8.73533 13.546 8.59467 13.4053C8.45402 13.2647 8.375 13.0739 8.375 12.875C8.375 12.6761 8.45402 12.4853 8.59467 12.3447C8.73533 12.204 8.92609 12.125 9.125 12.125H12.125V9.125C12.125 8.92609 12.204 8.73532 12.3447 8.59467C12.4853 8.45402 12.6761 8.375 12.875 8.375C13.0739 8.375 13.2647 8.45402 13.4053 8.59467C13.546 8.73532 13.625 8.92609 13.625 9.125V12.125H16.625C16.8239 12.125 17.0147 12.204 17.1553 12.3447C17.296 12.4853 17.375 12.6761 17.375 12.875Z" fill="#614C4C"/>
</svg>
