<svg width="20" height="20" viewBox="0 0 20 20" fill="none" xmlns="http://www.w3.org/2000/svg">
<g clip-path="url(#clip0_2080_357)">
<path fill-rule="evenodd" clip-rule="evenodd" d="M13.9366 2.52496C13.624 2.21251 13.2002 2.03699 12.7582 2.03699C12.3163 2.03699 11.8925 2.21251 11.5799 2.52496L2.98492 11.12C2.67233 11.4325 2.49668 11.8563 2.49658 12.2983V16.6591C2.49658 17.1233 2.87408 17.5008 3.33825 17.5008L16.6666 17.5C16.8876 17.5 17.0996 17.4122 17.2558 17.2559C17.4121 17.0996 17.4999 16.8876 17.4999 16.6666C17.4999 16.4456 17.4121 16.2337 17.2558 16.0774C17.0996 15.9211 16.8876 15.8333 16.6666 15.8333H10.0566L17.4724 8.41746C17.7849 8.10492 17.9604 7.68107 17.9604 7.23913C17.9604 6.79719 17.7849 6.37334 17.4724 6.0608L13.9366 2.52496ZM7.69991 15.8333L16.2941 7.23913L12.7582 3.7033L4.16325 12.2983V15.8333H7.69991Z" fill="#614C4C"/>
</g>
<defs>
<clipPath id="clip0_2080_357">
<rect width="20" height="20" fill="white"/>
</clipPath>
</defs>
</svg>
