<svg width="48" height="52" viewBox="0 0 48 52" fill="none" xmlns="http://www.w3.org/2000/svg">
<g filter="url(#filter0_b_352_547)">
<g filter="url(#filter1_d_352_547)">
<circle cx="21" cy="24.9999" r="20" fill="white" fill-opacity="0.48" shape-rendering="crispEdges"/>
</g>
<path d="M23.6782 27.625H17.8226V31.875H23.6782V27.625Z" fill="#614C4C"/>
<path fill-rule="evenodd" clip-rule="evenodd" d="M14.8948 27.625C16.5117 27.625 17.8225 25.7223 17.8225 23.375C17.8225 21.0278 16.5117 19.125 14.8948 19.125C13.2778 19.125 11.967 21.0278 11.967 23.375C11.967 25.7223 13.2778 27.625 14.8948 27.625ZM14.8948 24.4375C15.299 24.4375 15.6267 23.9617 15.6267 23.375C15.6267 22.7883 15.299 22.3125 14.8948 22.3125C14.4905 22.3125 14.1628 22.7883 14.1628 23.375C14.1628 23.9617 14.4905 24.4375 14.8948 24.4375Z" fill="#614C4C"/>
<path fill-rule="evenodd" clip-rule="evenodd" d="M29.5337 23.375C29.5337 25.7223 28.223 27.625 26.6059 27.625C24.9889 27.625 23.6782 25.7223 23.6782 23.375C23.6782 21.0278 24.9889 19.125 26.6059 19.125C28.223 19.125 29.5337 21.0278 29.5337 23.375ZM27.3379 23.375C27.3379 23.9617 27.0101 24.4375 26.6059 24.4375C26.2016 24.4375 25.874 23.9617 25.874 23.375C25.874 22.7883 26.2016 22.3125 26.6059 22.3125C27.0101 22.3125 27.3379 22.7883 27.3379 23.375Z" fill="#614C4C"/>
<path fill-rule="evenodd" clip-rule="evenodd" d="M7.02422 31.1659C8.46137 35.3645 11.446 38.25 14.8949 38.25H26.606C30.1779 38.25 33.2519 35.1549 34.6244 30.7116C35.7506 29.5573 36.4862 27.6533 36.4862 25.5C36.4862 23.3467 35.7506 21.4427 34.6244 20.2885C33.2519 15.8451 30.1779 12.75 26.606 12.75H14.8949C11.446 12.75 8.46137 15.6355 7.02422 19.8342C5.61252 20.8943 4.64764 23.0335 4.64764 25.5C4.64764 27.9665 5.61252 30.1057 7.02422 31.1659ZM14.8949 17H26.606C28.6311 17 30.4163 18.4925 31.4677 20.7611C31.872 22.226 32.0945 23.8253 32.0945 25.5C32.0945 27.1747 31.872 28.774 31.4677 30.239C30.4163 32.5076 28.6311 34 26.606 34H14.8949C11.6609 34 9.03931 30.1943 9.03931 25.5C9.03931 20.8056 11.6609 17 14.8949 17Z" fill="#614C4C"/>
</g>
<defs>
<filter id="filter0_b_352_547" x="-3" y="-4" width="48" height="59" filterUnits="userSpaceOnUse" color-interpolation-filters="sRGB">
<feFlood flood-opacity="0" result="BackgroundImageFix"/>
<feGaussianBlur in="BackgroundImageFix" stdDeviation="2"/>
<feComposite in2="SourceAlpha" operator="in" result="effect1_backgroundBlur_352_547"/>
<feBlend mode="normal" in="SourceGraphic" in2="effect1_backgroundBlur_352_547" result="shape"/>
</filter>
<filter id="filter1_d_352_547" x="0" y="3.99988" width="48" height="48" filterUnits="userSpaceOnUse" color-interpolation-filters="sRGB">
<feFlood flood-opacity="0" result="BackgroundImageFix"/>
<feColorMatrix in="SourceAlpha" type="matrix" values="0 0 0 0 0 0 0 0 0 0 0 0 0 0 0 0 0 0 127 0" result="hardAlpha"/>
<feOffset dx="3" dy="3"/>
<feGaussianBlur stdDeviation="2"/>
<feComposite in2="hardAlpha" operator="out"/>
<feColorMatrix type="matrix" values="0 0 0 0 0 0 0 0 0 0 0 0 0 0 0 0 0 0 0.25 0"/>
<feBlend mode="normal" in2="BackgroundImageFix" result="effect1_dropShadow_352_547"/>
<feBlend mode="normal" in="SourceGraphic" in2="effect1_dropShadow_352_547" result="shape"/>
</filter>
</defs>
</svg>
