<svg width="35" height="35" viewBox="0 0 35 35" fill="none" xmlns="http://www.w3.org/2000/svg">
<g clip-path="url(#clip0_2057_454)">
<path d="M17.5001 2.91663C25.5545 2.91663 32.0834 9.44558 32.0834 17.5C32.0834 25.5543 25.5545 32.0833 17.5001 32.0833C9.44571 32.0833 2.91675 25.5543 2.91675 17.5C2.91675 9.44558 9.44571 2.91663 17.5001 2.91663ZM17.5001 8.74996C17.1133 8.74996 16.7424 8.9036 16.4689 9.1771C16.1954 9.45059 16.0417 9.82152 16.0417 10.2083V17.5C16.0418 17.8867 16.1955 18.2576 16.469 18.531L20.844 22.906C21.1191 23.1716 21.4875 23.3186 21.8698 23.3153C22.2522 23.312 22.618 23.1586 22.8884 22.8882C23.1587 22.6178 23.3121 22.2521 23.3154 21.8697C23.3188 21.4873 23.1718 21.119 22.9061 20.8439L18.9584 16.8962V10.2083C18.9584 9.82152 18.8048 9.45059 18.5313 9.1771C18.2578 8.9036 17.8869 8.74996 17.5001 8.74996Z" fill="#614C4C"/>
</g>
<defs>
<clipPath id="clip0_2057_454">
<rect width="35" height="35" fill="white"/>
</clipPath>
</defs>
</svg>
