<svg xmlns="http://www.w3.org/2000/svg" fill="none" viewBox="-0.5 -0.5 24 24" height="24" width="24" id="Partly-Cloudy-Night--Streamline-Rounded----Material-Symbols.svg">
  <path fill="#000" d="M12.554166666666667 22.041618749999998H9.775L10.0625 21.814014583333336C10.254166666666666 21.6622625 10.465814583333334 21.498531250000003 10.697395833333333 21.322868749999998C10.928977083333333 21.147158333333334 11.140625 20.983427083333332 11.332291666666666 20.831722916666667L11.619791666666668 20.604118749999998H12.602083333333335C14.151372916666668 20.604118749999998 15.592897916666667 20.140908333333336 16.926562500000003 19.214535416666667C18.260227083333334 18.288114583333332 19.310416666666665 17.138114583333333 20.077083333333334 15.764535416666668C18.639583333333334 15.63674166666667 17.258002083333334 15.305302083333334 15.932291666666668 14.770264583333333C14.60658125 14.235179166666668 13.436647916666667 13.464535416666669 12.422395833333335 12.458285416666667C11.40814375 11.452035416666666 10.6375 10.290056250000001 10.110416666666667 8.972347916666667C9.583333333333334 7.654639583333333 9.255918750000001 6.284989583333334 9.128125 4.863493750000001C7.722585416666668 5.630160416666667 6.568560416666666 6.672347916666666 5.666145833333333 7.990056250000001C4.763716875 9.307764583333334 4.3125 10.765197916666667 4.3125 12.362452083333334V12.637972916666667C4.3125 12.741760416666667 4.320487708333333 12.833616666666668 4.336458333333334 12.91349375L4.119875 13.00261875C3.975487708333334 13.062035416666665 3.8160833333333337 13.124135416666668 3.6416666666666666 13.189014583333334C3.46725 13.253845833333333 3.307845625 13.31599375 3.1634583333333337 13.375410416666668L2.9468750000000004 13.464535416666669C2.9149289583333333 13.256864583333334 2.894966875 13.065197916666667 2.886979166666667 12.889535416666666C2.8789914583333336 12.713825000000002 2.875 12.538114583333334 2.875 12.362452083333334C2.875 10.190197916666667 3.513887291666667 8.265577083333334 4.791666666666667 6.5884937500000005C6.069460416666667 4.911410416666667 7.738541666666666 3.76938375 9.798958333333333 3.1624377083333335C9.926752083333334 3.130491666666667 10.04654375 3.12250875 10.158333333333333 3.138479375C10.270122916666667 3.15445 10.36595625 3.202366666666667 10.445833333333335 3.282229375C10.525710416666668 3.3620920833333336 10.593560416666667 3.452894166666667 10.649479166666667 3.5546356250000004C10.705397916666668 3.65654 10.72533125 3.7733752083333334 10.709375000000001 3.905146041666667C10.613541666666666 5.358616666666666 10.785227083333332 6.720264583333334 11.224479166666667 7.990056250000001C11.66373125 9.259847916666667 12.402414583333334 10.413825000000001 13.440625 11.452035416666666C14.510747916666668 12.522158333333334 15.660747916666669 13.264866666666666 16.890625 13.680160416666668C18.12050208333333 14.09540625 19.478125 14.263114583333333 20.963541666666668 14.183285416666669C21.0924375 14.167281250000002 21.212468750000003 14.191239583333333 21.32363541666667 14.255160416666667C21.434945833333334 14.319033333333334 21.530539583333336 14.390908333333334 21.61041666666667 14.470785416666667C21.690293750000002 14.550614583333333 21.734185416666666 14.650472916666667 21.7421875 14.770264583333333C21.750189583333334 14.89005625 21.730208333333334 15.013825 21.682291666666668 15.141618750000001C20.963541666666668 17.23394791666667 19.841477083333334 18.907054166666665 18.316145833333334 20.160889583333333C16.790814583333333 21.414677083333334 14.870122916666668 22.041618749999998 12.554166666666667 22.041618749999998ZM5.75 20.604118749999998H10.0625C10.594854166666668 20.604118749999998 11.047427083333334 20.418345833333333 11.42021875 20.046847916666668C11.792866666666667 19.675158333333332 11.979166666666668 19.223927083333336 11.979166666666668 18.693202083333333C11.979166666666668 18.162285416666666 11.796604166666667 17.7091375 11.431479166666668 17.333806250000002C11.066354166666667 16.958427083333333 10.626 16.770785416666666 10.110416666666667 16.770785416666666H9.176041666666666L8.816666666666666 15.93224375C8.545122916666667 15.309327083333333 8.132320833333335 14.81415625 7.578260416666667 14.446827083333334C7.02434375 14.07945 6.414939583333334 13.895785416666667 5.75 13.895785416666667C4.839583333333334 13.895785416666667 4.052949791666667 14.2232 3.3901041666666667 14.878077083333334C2.727258541666667 15.53290625 2.3958333333333335 16.32353125 2.3958333333333335 17.249952083333334C2.3958333333333335 18.181595833333336 2.7219062500000004 18.9735625 3.3740520833333334 19.625899999999998C4.026356041666666 20.278045833333334 4.81835625 20.604118749999998 5.75 20.604118749999998ZM5.75 22.041618749999998C4.424303958333334 22.041618749999998 3.2942708333333335 21.574431250000004 2.3598958333333333 20.64005625C1.4255208333333333 19.705681249999998 0.9583333333333334 18.575614583333333 0.9583333333333334 17.249952083333334C0.9583333333333334 15.924241666666665 1.4255208333333333 14.794222916666667 2.3598958333333333 13.859847916666668C3.2942708333333335 12.925472916666667 4.424303958333334 12.458285416666667 5.75 12.458285416666667C6.708333333333334 12.458285416666667 7.5828125 12.717802083333334 8.373437500000001 13.236931250000001C9.1640625 13.7560125 9.751041666666667 14.45478125 10.134375 15.333285416666667C11.044791666666667 15.365197916666666 11.819460416666667 15.704639583333336 12.458333333333334 16.351514583333334C13.097206250000001 16.99838958333333 13.416666666666668 17.777035416666667 13.416666666666668 18.687452083333334C13.416666666666668 19.613825000000002 13.089252083333335 20.40445 12.434375 21.059327083333333C11.779497916666667 21.71415625 10.988872916666667 22.041618749999998 10.0625 22.041618749999998H5.75Z" stroke-width="1"></path>
</svg>