<svg xmlns="http://www.w3.org/2000/svg" fill="none" viewBox="-0.5 -0.5 24 24" height="24" width="24" id="Charging-Station--Streamline-Rounded----Material-Symbols.svg">
  <path fill="#000" d="M11.020833333333334 12.458333333333334H9.679166666666667C9.5493125 12.458333333333334 9.448927083333334 12.402414583333334 9.378010416666667 12.290625C9.307237500000001 12.178835416666667 9.303835416666667 12.05904375 9.367708333333335 11.93125L11.64375 7.139583333333333C11.675710416666668 7.0597062500000005 11.739583333333334 7.031770833333334 11.835416666666667 7.055729166666667C11.93125 7.0796875 11.979166666666668 7.139583333333333 11.979166666666668 7.235416666666667V10.541666666666668H13.320833333333335C13.4506875 10.541666666666668 13.551072916666667 10.597585416666668 13.621989583333333 10.709375000000001C13.6927625 10.821164583333335 13.696164583333335 10.940956250000001 13.632291666666667 11.068750000000001L11.35625 15.860416666666667C11.324289583333332 15.94029375 11.260416666666668 15.968229166666669 11.164583333333335 15.944270833333333C11.068750000000001 15.920312500000001 11.020833333333334 15.860416666666667 11.020833333333334 15.764583333333333V12.458333333333334ZM6.229166666666667 22.041666666666668C5.845833333333333 22.041666666666668 5.510416666666667 21.897916666666667 5.222916666666667 21.61041666666667C4.935416666666667 21.322916666666668 4.791666666666667 20.9875 4.791666666666667 20.604166666666668V2.3958333333333335C4.791666666666667 2.0125 4.935416666666667 1.6770833333333335 5.222916666666667 1.3895833333333334C5.510416666666667 1.1020833333333333 5.845833333333333 0.9583333333333334 6.229166666666667 0.9583333333333334H16.770833333333336C17.154166666666665 0.9583333333333334 17.489583333333336 1.1020833333333333 17.777083333333334 1.3895833333333334C18.064583333333335 1.6770833333333335 18.208333333333336 2.0125 18.208333333333336 2.3958333333333335V20.604166666666668C18.208333333333336 20.9875 18.064583333333335 21.322916666666668 17.777083333333334 21.61041666666667C17.489583333333336 21.897916666666667 17.154166666666665 22.041666666666668 16.770833333333336 22.041666666666668H6.229166666666667ZM6.229166666666667 19.885416666666668V20.604166666666668H16.770833333333336V19.885416666666668H6.229166666666667ZM6.229166666666667 18.447916666666668H16.770833333333336V4.552083333333334H6.229166666666667V18.447916666666668ZM6.229166666666667 3.1145833333333335H16.770833333333336V2.3958333333333335H6.229166666666667V3.1145833333333335Z" stroke-width="1"></path>
</svg>