<svg width="24" height="24" viewBox="0 0 24 24" fill="none" xmlns="http://www.w3.org/2000/svg">
<path d="M18.75 5.25H3C2.40326 5.25 1.83097 5.48705 1.40901 5.90901C0.987053 6.33097 0.75 6.90326 0.75 7.5V16.5C0.75 17.0967 0.987053 17.669 1.40901 18.091C1.83097 18.5129 2.40326 18.75 3 18.75H18.75C19.3467 18.75 19.919 18.5129 20.341 18.091C20.7629 17.669 21 17.0967 21 16.5V7.5C21 6.90326 20.7629 6.33097 20.341 5.90901C19.919 5.48705 19.3467 5.25 18.75 5.25ZM19.5 16.5C19.5 16.6989 19.421 16.8897 19.2803 17.0303C19.1397 17.171 18.9489 17.25 18.75 17.25H3C2.80109 17.25 2.61032 17.171 2.46967 17.0303C2.32902 16.8897 2.25 16.6989 2.25 16.5V7.5C2.25 7.30109 2.32902 7.11032 2.46967 6.96967C2.61032 6.82902 2.80109 6.75 3 6.75H18.75C18.9489 6.75 19.1397 6.82902 19.2803 6.96967C19.421 7.11032 19.5 7.30109 19.5 7.5V16.5ZM24 9V15C24 15.1989 23.921 15.3897 23.7803 15.5303C23.6397 15.671 23.4489 15.75 23.25 15.75C23.0511 15.75 22.8603 15.671 22.7197 15.5303C22.579 15.3897 22.5 15.1989 22.5 15V9C22.5 8.80109 22.579 8.61032 22.7197 8.46967C22.8603 8.32902 23.0511 8.25 23.25 8.25C23.4489 8.25 23.6397 8.32902 23.7803 8.46967C23.921 8.61032 24 8.80109 24 9ZM13.0134 11.6053C13.0808 11.7141 13.1191 11.8384 13.1248 11.9662C13.1306 12.094 13.1035 12.2212 13.0463 12.3356L11.5463 15.3356C11.5022 15.4238 11.4412 15.5024 11.3667 15.567C11.2923 15.6315 11.2058 15.6808 11.1123 15.712C11.0188 15.7431 10.9201 15.7556 10.8218 15.7486C10.7235 15.7416 10.6275 15.7153 10.5394 15.6713C10.4512 15.6272 10.3726 15.5662 10.308 15.4917C10.2435 15.4173 10.1942 15.3308 10.163 15.2373C10.1319 15.1438 10.1194 15.0451 10.1264 14.9468C10.1334 14.8485 10.1597 14.7525 10.2037 14.6644L11.1619 12.75H9.375C9.24709 12.7501 9.12129 12.7175 9.00954 12.6552C8.89779 12.593 8.80382 12.5032 8.73655 12.3944C8.66929 12.2856 8.63096 12.1614 8.62522 12.0337C8.61948 11.9059 8.64651 11.7788 8.70375 11.6644L10.2037 8.66437C10.2478 8.57623 10.3088 8.49762 10.3833 8.43305C10.4577 8.36847 10.5442 8.3192 10.6377 8.28803C10.7312 8.25687 10.8299 8.24442 10.9282 8.25141C11.0265 8.25839 11.1225 8.28467 11.2106 8.32875C11.2988 8.37282 11.3774 8.43383 11.442 8.50828C11.5065 8.58274 11.5558 8.66918 11.587 8.76268C11.6181 8.85617 11.6306 8.95489 11.6236 9.0532C11.6166 9.15151 11.5903 9.24748 11.5463 9.33563L10.5881 11.25H12.375C12.5029 11.2499 12.6287 11.2825 12.7404 11.3447C12.8522 11.4068 12.9461 11.4966 13.0134 11.6053Z" fill="#69CF19"/>
</svg>
