<svg width="17" height="17" viewBox="0 0 17 17" fill="none" xmlns="http://www.w3.org/2000/svg">
<path fill-rule="evenodd" clip-rule="evenodd" d="M1.41675 2.83341C1.41675 2.05101 2.05101 1.41675 2.83341 1.41675H7.79175C8.18296 1.41675 8.50008 1.73388 8.50008 2.12508C8.50008 2.51628 8.18296 2.83341 7.79175 2.83341H2.83341V14.1667H14.1667V9.20842C14.1667 8.8172 14.4839 8.50008 14.8751 8.50008C15.2663 8.50008 15.5834 8.8172 15.5834 9.20842V14.1667C15.5834 14.9492 14.9492 15.5834 14.1667 15.5834H2.83341C2.05102 15.5834 1.41675 14.9492 1.41675 14.1667V2.83341ZM12.2878 1.41675C12.4757 1.41671 12.656 1.49139 12.7889 1.62433L15.3761 4.21261C15.6525 4.48921 15.6525 4.93753 15.3761 5.21412L8.05093 12.5425C7.91804 12.6754 7.73784 12.7501 7.54992 12.7501H4.95841C4.56722 12.7501 4.25008 12.433 4.25008 12.0417V9.46342C4.25008 9.27564 4.32459 9.09565 4.45725 8.96284L11.7867 1.62452C11.9196 1.49153 12.0998 1.41678 12.2878 1.41675ZM12.2881 3.12722L5.66675 9.75652V11.3334H7.25646L13.8736 4.71337L12.2881 3.12722Z" fill="#A4979E"/>
</svg>
