<svg width="35" height="35" viewBox="0 0 35 35" fill="none" xmlns="http://www.w3.org/2000/svg">
<g clip-path="url(#clip0_2057_409)">
<path fill-rule="evenodd" clip-rule="evenodd" d="M22.7296 4.02062C23.2765 3.47383 24.0183 3.16666 24.7917 3.16666C25.5651 3.16666 26.3068 3.47383 26.8538 4.02062L30.9794 8.14624C31.5262 8.6932 31.8333 9.43493 31.8333 10.2083C31.8333 10.9817 31.5262 11.7235 30.9794 12.2704L26.8538 16.396C26.3068 16.9428 25.5651 17.25 24.7917 17.25C24.0183 17.25 23.2765 16.9428 22.7296 16.396L18.604 12.2704C18.0572 11.7235 17.75 10.9817 17.75 10.2083C17.75 9.43493 18.0572 8.6932 18.604 8.14624L22.7296 4.02062ZM13.125 4.37499C13.8985 4.37499 14.6404 4.68228 15.1874 5.22926C15.7344 5.77625 16.0417 6.51811 16.0417 7.29166V13.125C16.0417 13.8985 15.7344 14.6404 15.1874 15.1874C14.6404 15.7344 13.8985 16.0417 13.125 16.0417H7.29167C6.51812 16.0417 5.77625 15.7344 5.22927 15.1874C4.68229 14.6404 4.375 13.8985 4.375 13.125V7.29166C4.375 6.51811 4.68229 5.77625 5.22927 5.22926C5.77625 4.68228 6.51812 4.37499 7.29167 4.37499H13.125ZM30.625 21.875C30.625 21.1014 30.3177 20.3596 29.7707 19.8126C29.2237 19.2656 28.4819 18.9583 27.7083 18.9583H21.875C21.1015 18.9583 20.3596 19.2656 19.8126 19.8126C19.2656 20.3596 18.9583 21.1014 18.9583 21.875V27.7083C18.9583 28.4819 19.2656 29.2237 19.8126 29.7707C20.3596 30.3177 21.1015 30.625 21.875 30.625H27.7083C28.4819 30.625 29.2237 30.3177 29.7707 29.7707C30.3177 29.2237 30.625 28.4819 30.625 27.7083V21.875ZM13.125 18.9583C13.8985 18.9583 14.6404 19.2656 15.1874 19.8126C15.7344 20.3596 16.0417 21.1014 16.0417 21.875V27.7083C16.0417 28.4819 15.7344 29.2237 15.1874 29.7707C14.6404 30.3177 13.8985 30.625 13.125 30.625H7.29167C6.51812 30.625 5.77625 30.3177 5.22927 29.7707C4.68229 29.2237 4.375 28.4819 4.375 27.7083V21.875C4.375 21.1014 4.68229 20.3596 5.22927 19.8126C5.77625 19.2656 6.51812 18.9583 7.29167 18.9583H13.125Z" fill="#614C4C"/>
</g>
<defs>
<clipPath id="clip0_2057_409">
<rect width="35" height="35" fill="white"/>
</clipPath>
</defs>
</svg>
