<svg width="20" height="20" viewBox="0 0 20 20" fill="none" xmlns="http://www.w3.org/2000/svg">
<path d="M9.9126 0.000381426C9.97659 -0.000177455 10.0406 -0.000122226 10.1046 0.000547518L9.99986 10L9.9126 0.000381426Z" fill="#FF0000"/>
<path d="M10.0873 0.000244141C10.1513 0.000802572 10.2152 0.00197524 10.2792 0.00376207L10 9.99986L10.0873 0.000244141Z" fill="#FF0400"/>
<path d="M10.2618 0.003479C10.3257 0.00515417 10.3897 0.00744319 10.4536 0.0103462L10 10.0001L10.2618 0.003479Z" fill="#FF0900"/>
<path d="M10.4362 0.00957489C10.5001 0.0123664 10.564 0.0157715 10.6279 0.0197899L10 10.0001L10.4362 0.00957489Z" fill="#FF0D00"/>
<path d="M10.6105 0.0187073C10.6744 0.0226141 10.7382 0.0271342 10.802 0.0322666L10 10.0001L10.6105 0.0187073Z" fill="#FF1100"/>
<path d="M10.7846 0.0308838C10.8484 0.0359048 10.9121 0.0415383 10.9758 0.0477831L10 10.0001L10.7846 0.0308838Z" fill="#FF1500"/>
<path d="M10.9585 0.0460892C11.0222 0.0522229 11.0858 0.0589681 11.1494 0.0663236L10 10.0001L10.9585 0.0460892Z" fill="#FF1A00"/>
<path d="M11.132 0.0643387C11.1956 0.0715832 11.2591 0.0794378 11.3226 0.0879016L10 10.0001L11.132 0.0643387Z" fill="#FF1E00"/>
<path d="M11.3053 0.0856018C11.3687 0.0939549 11.4321 0.102917 11.4954 0.112487L10 10L11.3053 0.0856018Z" fill="#FF2200"/>
<path d="M11.4781 0.109894C11.5414 0.119353 11.6046 0.12942 11.6677 0.140092L10 10.0001L11.4781 0.109894Z" fill="#FF2600"/>
<path d="M11.6505 0.137199C11.7136 0.147762 11.7766 0.15893 11.8395 0.170702L10 10.0001L11.6505 0.137199Z" fill="#FF2B00"/>
<path d="M11.8224 0.167503C11.8853 0.179166 11.9481 0.191432 12.0108 0.2043L10 10.0001L11.8224 0.167503Z" fill="#FF2F00"/>
<path d="M11.9937 0.200806C12.0564 0.213564 12.119 0.226925 12.1814 0.240885L10 10.0001L11.9937 0.200806Z" fill="#FF3300"/>
<path d="M12.1644 0.237091C12.2269 0.250942 12.2892 0.265393 12.3514 0.280441L10 10.0001L12.1644 0.237091Z" fill="#FF3700"/>
<path d="M12.3345 0.276352C12.3967 0.291292 12.4588 0.306828 12.5207 0.32296L10 10.0001L12.3345 0.276352Z" fill="#FF3C00"/>
<path d="M12.5038 0.318581C12.5658 0.334604 12.6276 0.351221 12.6892 0.368431L10 10.0001L12.5038 0.318581Z" fill="#FF4000"/>
<path d="M12.6724 0.363747C12.7341 0.380849 12.7956 0.398542 12.8569 0.416825L10 10.0001L12.6724 0.363747Z" fill="#FF4400"/>
<path d="M12.8402 0.411858C12.9015 0.430033 12.9627 0.448798 13.0237 0.468148L10 10.0001L12.8402 0.411858Z" fill="#FF4800"/>
<path d="M13.0071 0.462883C13.0681 0.482127 13.1289 0.501957 13.1896 0.522369L10 10.0001L13.0071 0.462883Z" fill="#FF4D00"/>
<path d="M13.173 0.516815C13.2337 0.537121 13.2942 0.55801 13.3545 0.579477L10 10.0001L13.173 0.516815Z" fill="#FF5100"/>
<path d="M13.3381 0.573639C13.3984 0.595001 13.4585 0.616942 13.5184 0.639458L10 10.0001L13.3381 0.573639Z" fill="#FF5500"/>
<path d="M13.5021 0.633331C13.562 0.655743 13.6217 0.67873 13.6812 0.702288L10 10.0001L13.5021 0.633331Z" fill="#FF5900"/>
<path d="M13.665 0.695877C13.7246 0.719332 13.7839 0.743357 13.843 0.767951L10 10.0001L13.665 0.695877Z" fill="#FF5E00"/>
<path d="M13.8268 0.761261C13.886 0.785751 13.9448 0.810808 14.0035 0.836429L10 10.0001L13.8268 0.761261Z" fill="#FF6200"/>
<path d="M13.9875 0.829453C14.0462 0.854971 14.1046 0.881052 14.1628 0.907692L10 10.0001L13.9875 0.829453Z" fill="#FF6600"/>
<path d="M14.1469 0.900444C14.2052 0.926983 14.2631 0.95408 14.3209 0.981732L10 10.0001L14.1469 0.900444Z" fill="#FF6A00"/>
<path d="M14.3051 0.974197C14.3629 1.00175 14.4204 1.02985 14.4776 1.05851L10 10.0001L14.3051 0.974197Z" fill="#FF6F00"/>
<path d="M14.462 1.05071C14.5192 1.07927 14.5762 1.10837 14.633 1.13802L10 10.0001L14.462 1.05071Z" fill="#FF7300"/>
<path d="M14.6175 1.12994C14.6743 1.15949 14.7307 1.18959 14.7869 1.22022L10 10.0001L14.6175 1.12994Z" fill="#FF7700"/>
<path d="M14.7716 1.21188C14.8278 1.24242 14.8838 1.2735 14.9394 1.30511L10 10.0001L14.7716 1.21188Z" fill="#FF7B00"/>
<path d="M14.9242 1.29649C14.9799 1.32801 15.0353 1.36005 15.0904 1.39263L10 10.0001L14.9242 1.29649Z" fill="#FF8000"/>
<path d="M15.0754 1.38377C15.1305 1.41625 15.1854 1.44926 15.2399 1.48279L10 10.0001L15.0754 1.38377Z" fill="#FF8400"/>
<path d="M15.225 1.47366C15.2796 1.50709 15.3338 1.54105 15.3877 1.57553L10 10.0001L15.225 1.47366Z" fill="#FF8800"/>
<path d="M15.373 1.56614C15.427 1.60052 15.4806 1.63543 15.5339 1.67084L10 10.0001L15.373 1.56614Z" fill="#FF8C00"/>
<path d="M15.5194 1.66119C15.5727 1.69652 15.6258 1.73235 15.6784 1.76869L10 10.0001L15.5194 1.66119Z" fill="#FF9100"/>
<path d="M15.6641 1.75879C15.7168 1.79504 15.7692 1.83179 15.8212 1.86904L10 10.0001L15.6641 1.75879Z" fill="#FF9500"/>
<path d="M15.807 1.8589C15.8591 1.89606 15.9109 1.93373 15.9622 1.97188L10 10.0001L15.807 1.8589Z" fill="#FF9900"/>
<path d="M15.9482 1.96149C15.9997 1.99955 16.0507 2.03811 16.1015 2.07716L10 10.0001L15.9482 1.96149Z" fill="#FF9D00"/>
<path d="M16.0876 2.06652C16.1384 2.10548 16.1888 2.14492 16.2388 2.18485L10 10.0001L16.0876 2.06652Z" fill="#FFA200"/>
<path d="M16.2251 2.17397C16.2752 2.21381 16.3249 2.25413 16.3742 2.29492L10 10.0001L16.2251 2.17397Z" fill="#FFA600"/>
<path d="M16.3608 2.28381C16.4102 2.32451 16.4592 2.36569 16.5077 2.40734L10 10.0001L16.3608 2.28381Z" fill="#FFAA00"/>
<path d="M16.4945 2.396C16.5431 2.43756 16.5914 2.47959 16.6393 2.52207L10 10.0001L16.4945 2.396Z" fill="#FFAE00"/>
<path d="M16.6262 2.5105C16.6741 2.5529 16.7217 2.59577 16.7688 2.63908L10 10.0001L16.6262 2.5105Z" fill="#FFB300"/>
<path d="M16.7559 2.62728C16.8031 2.67052 16.8499 2.7142 16.8962 2.75834L10 10.0001L16.7559 2.62728Z" fill="#FFB700"/>
<path d="M16.8835 2.74631C16.93 2.79036 16.976 2.83486 17.0215 2.87979L10 10.0001L16.8835 2.74631Z" fill="#FFBB00"/>
<path d="M16.8835 2.74631C16.93 2.79036 16.976 2.83486 17.0215 2.87979L10 10.0001L16.8835 2.74631Z" fill="#FFBB00"/>
<path d="M17.0091 2.86755C17.0547 2.9124 17.1 2.95769 17.1447 3.00342L10 10.0001L17.0091 2.86755Z" fill="#FFBF00"/>
<path d="M17.1325 2.99096C17.1774 3.0366 17.2218 3.08268 17.2657 3.12918L10 10.0001L17.1325 2.99096Z" fill="#FFC400"/>
<path d="M17.2537 3.11651C17.2978 3.16293 17.3414 3.20977 17.3846 3.25703L10 10.0001L17.2537 3.11651Z" fill="#FFC800"/>
<path d="M17.3728 3.24416C17.416 3.29134 17.4588 3.33893 17.5011 3.38694L10 10.0001L17.3728 3.24416Z" fill="#FFCC00"/>
<path d="M17.4896 3.37386C17.532 3.42179 17.5739 3.47012 17.6154 3.51886L10 10.0001L17.4896 3.37386Z" fill="#FFD000"/>
<path d="M17.6041 3.50558C17.6456 3.55424 17.6867 3.6033 17.7273 3.65275L10 10.0001L17.6041 3.50558Z" fill="#FFD500"/>
<path d="M17.7162 3.63927C17.757 3.68866 17.7972 3.73843 17.8369 3.78858L10 10.0001L17.7162 3.63927Z" fill="#FFD900"/>
<path d="M17.8261 3.77491C17.8659 3.82499 17.9053 3.87546 17.9441 3.9263L10 10.0001L17.8261 3.77491Z" fill="#FFDD00"/>
<path d="M17.9335 3.91244C17.9725 3.96321 18.011 4.01435 18.0489 4.06586L10 10.0001L17.9335 3.91244Z" fill="#FFE100"/>
<path d="M18.0386 4.05183C18.0766 4.10327 18.1142 4.15508 18.1513 4.20724L10 10.0001L18.0386 4.05183Z" fill="#FFE600"/>
<path d="M18.1412 4.19302C18.1783 4.24512 18.215 4.29758 18.2511 4.35038L10 10.0001L18.1412 4.19302Z" fill="#FFEA00"/>
<path d="M18.2413 4.33599C18.2775 4.38873 18.3133 4.44182 18.3485 4.49525L10 10.0001L18.2413 4.33599Z" fill="#FFEE00"/>
<path d="M18.3389 4.48068C18.3742 4.53405 18.409 4.58775 18.4433 4.64178L10 10.0001L18.3389 4.48068Z" fill="#FFF200"/>
<path d="M18.4339 4.62706C18.4683 4.68103 18.5022 4.73534 18.5355 4.78996L10 10.0001L18.4339 4.62706Z" fill="#FFF700"/>
<path d="M18.5264 4.77507C18.5598 4.82964 18.5928 4.88452 18.6251 4.93972L10 10.0001L18.5264 4.77507Z" fill="#FFFB00"/>
<path d="M18.6163 4.92467C18.6488 4.97981 18.6807 5.03526 18.7121 5.09101L10 10.0001L18.6163 4.92467Z" fill="#FFFF00"/>
<path d="M18.7036 5.07582C18.7351 5.13152 18.766 5.18752 18.7965 5.24381L10 10.0001L18.7036 5.07582Z" fill="#FBFF00"/>
<path d="M18.7882 5.22847C18.8187 5.28471 18.8487 5.34124 18.8782 5.39806L10 10.0001L18.7882 5.22847Z" fill="#F7FF00"/>
<path d="M18.8701 5.38257C18.8997 5.43933 18.9287 5.49638 18.9571 5.5537L10 10.0001L18.8701 5.38257Z" fill="#F2FF00"/>
<path d="M18.9493 5.53808C18.9779 5.59535 19.0059 5.6529 19.0334 5.71071L10 10.0001L18.9493 5.53808Z" fill="#EEFF00"/>
<path d="M19.0259 5.69495C19.0534 5.75271 19.0804 5.81073 19.1068 5.86901L10 10.0001L19.0259 5.69495Z" fill="#EAFF00"/>
<path d="M19.0996 5.85312C19.1262 5.91135 19.1521 5.96984 19.1775 6.02857L10 10.0001L19.0996 5.85312Z" fill="#E6FF00"/>
<path d="M19.1706 6.01257C19.1961 6.07125 19.2211 6.13019 19.2455 6.18935L10 10.0001L19.1706 6.01257Z" fill="#E1FF00"/>
<path d="M19.2388 6.17322C19.2633 6.23234 19.2872 6.2917 19.3106 6.35128L10 10.0001L19.2388 6.17322Z" fill="#DDFF00"/>
<path d="M19.3042 6.33504C19.3276 6.39459 19.3505 6.45435 19.3728 6.51434L10 10.0001L19.3042 6.33504Z" fill="#D9FF00"/>
<path d="M19.3667 6.49798C19.3891 6.55792 19.411 6.61808 19.4322 6.67844L10 10.0001L19.3667 6.49798Z" fill="#D5FF00"/>
<path d="M19.4264 6.66199C19.4478 6.72231 19.4686 6.78284 19.4888 6.84357L10 10.0001L19.4264 6.66199Z" fill="#D0FF00"/>
<path d="M19.4832 6.82701C19.5035 6.8877 19.5233 6.94858 19.5424 7.00965L10 10.0001L19.4832 6.82701Z" fill="#CCFF00"/>
<path d="M19.5372 6.993C19.5564 7.05403 19.5751 7.11525 19.5931 7.17664L10 10.0001L19.5372 6.993Z" fill="#C8FF00"/>
<path d="M19.5882 7.1599C19.6064 7.22126 19.624 7.2828 19.641 7.3445L10 10.0001L19.5882 7.1599Z" fill="#C4FF00"/>
<path d="M19.6363 7.32767C19.6534 7.38934 19.6699 7.45117 19.6858 7.51315L10 10.0001L19.6363 7.32767Z" fill="#BFFF00"/>
<path d="M19.6815 7.49625C19.6975 7.55821 19.7129 7.62032 19.7278 7.68257L10 10.0001L19.6815 7.49625Z" fill="#BBFF00"/>
<path d="M19.7237 7.6656C19.7386 7.72783 19.753 7.7902 19.7667 7.8527L10 10.0001L19.7237 7.6656Z" fill="#B7FF00"/>
<path d="M19.763 7.83566C19.7768 7.89813 19.7901 7.96074 19.8027 8.02348L10 10.0001L19.763 7.83566Z" fill="#B3FF00"/>
<path d="M19.7992 8.00637C19.812 8.06908 19.8242 8.13191 19.8357 8.19486L10 10.0001L19.7992 8.00637Z" fill="#AEFF00"/>
<path d="M19.8325 8.1777C19.8442 8.24062 19.8553 8.30366 19.8657 8.36679L10 10.0001L19.8325 8.1777Z" fill="#AAFF00"/>
<path d="M19.8629 8.34958C19.8734 8.4127 19.8834 8.47592 19.8927 8.53923L10 10.0001L19.8629 8.34958Z" fill="#A6FF00"/>
<path d="M19.8902 8.52196C19.8996 8.58525 19.9085 8.64863 19.9167 8.7121L10 10.0001L19.8902 8.52196Z" fill="#A2FF00"/>
<path d="M19.9144 8.69479C19.9228 8.75824 19.9305 8.82177 19.9377 8.88537L10 10.0001L19.9144 8.69479Z" fill="#9EFF00"/>
<path d="M19.9357 8.86802C19.943 8.9316 19.9496 8.99526 19.9556 9.05897L10 10.0001L19.9357 8.86802Z" fill="#99FF00"/>
<path d="M19.954 9.0416C19.9601 9.1053 19.9656 9.16906 19.9705 9.23286L10 10.0001L19.954 9.0416Z" fill="#95FF00"/>
<path d="M19.9692 9.21546C19.9742 9.27926 19.9786 9.34311 19.9824 9.40699L10 10.0001L19.9692 9.21546Z" fill="#91FF00"/>
<path d="M19.9813 9.38957C19.9853 9.45345 19.9885 9.51736 19.9912 9.5813L10 10.0001L19.9813 9.38957Z" fill="#8CFF00"/>
<path d="M19.9905 9.56386C19.9933 9.62779 19.9955 9.69175 19.997 9.75573L10 10.0001L19.9905 9.56386Z" fill="#88FF00"/>
<path d="M19.9966 9.73828C19.9983 9.80226 19.9993 9.86624 19.9998 9.93024L10 10L19.9966 9.73828Z" fill="#84FF00"/>
<path d="M19.9996 9.91279C20.0002 9.97678 20.0001 10.0408 19.9995 10.1048L10 10.0001L19.9996 9.91279Z" fill="#80FF00"/>
<path d="M19.9996 10.0873C19.9991 10.1513 19.9979 10.2153 19.9961 10.2793L10 10.0001L19.9996 10.0873Z" fill="#7BFF00"/>
<path d="M19.9966 10.2618C19.9949 10.3258 19.9926 10.3898 19.9897 10.4537L10 10.0001L19.9966 10.2618Z" fill="#77FF00"/>
<path d="M19.9905 10.4362C19.9877 10.5002 19.9843 10.5641 19.9803 10.628L10 10.0001L19.9905 10.4362Z" fill="#73FF00"/>
<path d="M19.9813 10.6105C19.9774 10.6744 19.9729 10.7383 19.9678 10.802L10 10.0001L19.9813 10.6105Z" fill="#6FFF00"/>
<path d="M19.9692 10.7846C19.9642 10.8484 19.9585 10.9122 19.9523 10.9759L10 10.0001L19.9692 10.7846Z" fill="#6AFF00"/>
<path d="M19.954 10.9585C19.9478 11.0222 19.9411 11.0859 19.9337 11.1494L10 10.0001L19.954 10.9585Z" fill="#66FF00"/>
<path d="M19.9357 11.1321C19.9285 11.1957 19.9206 11.2592 19.9122 11.3226L10 10.0001L19.9357 11.1321Z" fill="#62FF00"/>
<path d="M19.9144 11.3053C19.9061 11.3688 19.8971 11.4321 19.8876 11.4954L10 10.0001L19.9144 11.3053Z" fill="#5EFF00"/>
<path d="M19.8902 11.4781C19.8807 11.5414 19.8706 11.6046 19.86 11.6677L10 10.0001L19.8902 11.4781Z" fill="#59FF00"/>
<path d="M19.8629 11.6505C19.8523 11.7136 19.8411 11.7767 19.8294 11.8396L10 10.0001L19.8629 11.6505Z" fill="#55FF00"/>
<path d="M19.8325 11.8224C19.8209 11.8853 19.8086 11.9481 19.7958 12.0108L10 10.0001L19.8325 11.8224Z" fill="#51FF00"/>
<path d="M19.7992 11.9937C19.7865 12.0564 19.7731 12.119 19.7592 12.1815L10 10.0001L19.7992 11.9937Z" fill="#4DFF00"/>
<path d="M19.763 12.1644C19.7491 12.2269 19.7347 12.2893 19.7196 12.3515L10 10.0001L19.763 12.1644Z" fill="#48FF00"/>
<path d="M19.7237 12.3345C19.7088 12.3967 19.6932 12.4588 19.6771 12.5207L10 10.0001L19.7237 12.3345Z" fill="#44FF00"/>
<path d="M19.6815 12.5039C19.6655 12.5658 19.6488 12.6276 19.6316 12.6893L10 10.0001L19.6815 12.5039Z" fill="#40FF00"/>
<path d="M19.6363 12.6724C19.6192 12.7341 19.6015 12.7956 19.5832 12.8569L10 10.0001L19.6363 12.6724Z" fill="#3CFF00"/>
<path d="M19.5882 12.8402C19.57 12.9016 19.5513 12.9628 19.5319 13.0238L10 10.0001L19.5882 12.8402Z" fill="#37FF00"/>
<path d="M19.5372 13.0071C19.5179 13.0681 19.4981 13.129 19.4777 13.1896L10 10.0001L19.5372 13.0071Z" fill="#33FF00"/>
<path d="M19.4832 13.1731C19.4629 13.2338 19.442 13.2943 19.4206 13.3546L10 10.0001L19.4832 13.1731Z" fill="#2FFF00"/>
<path d="M19.4264 13.3381C19.4051 13.3984 19.3831 13.4586 19.3606 13.5185L10 10.0001L19.4264 13.3381Z" fill="#2BFF00"/>
<path d="M19.3667 13.5021C19.3443 13.5621 19.3213 13.6218 19.2978 13.6813L10 10.0001L19.3667 13.5021Z" fill="#26FF00"/>
<path d="M19.3042 13.6651C19.2807 13.7246 19.2567 13.7839 19.2321 13.843L10 10.0001L19.3042 13.6651Z" fill="#22FF00"/>
<path d="M19.2388 13.8269C19.2143 13.886 19.1892 13.9449 19.1636 14.0035L10 10.0001L19.2388 13.8269Z" fill="#1EFF00"/>
<path d="M19.1706 13.9875C19.1451 14.0462 19.119 14.1047 19.0924 14.1629L10 10.0001L19.1706 13.9875Z" fill="#1AFF00"/>
<path d="M19.0996 14.147C19.0731 14.2052 19.046 14.2632 19.0183 14.3209L10 10.0001L19.0996 14.147Z" fill="#15FF00"/>
<path d="M19.0259 14.3052C18.9983 14.3629 18.9702 14.4204 18.9415 14.4776L10 10.0001L19.0259 14.3052Z" fill="#11FF00"/>
<path d="M18.9493 14.462C18.9208 14.5193 18.8917 14.5763 18.862 14.633L10 10.0001L18.9493 14.462Z" fill="#0DFF00"/>
<path d="M18.8701 14.6175C18.8406 14.6743 18.8105 14.7308 18.7798 14.787L10 10.0001L18.8701 14.6175Z" fill="#09FF00"/>
<path d="M18.7882 14.7716C18.7576 14.8279 18.7266 14.8838 18.6949 14.9395L10 10.0001L18.7882 14.7716Z" fill="#04FF00"/>
<path d="M18.7036 14.9243C18.672 14.98 18.64 15.0354 18.6074 15.0905L10 10.0001L18.7036 14.9243Z" fill="#00FF00"/>
<path d="M18.6163 15.0754C18.5838 15.1306 18.5508 15.1854 18.5173 15.2399L10 10.0001L18.6163 15.0754Z" fill="#00FF04"/>
<path d="M18.5264 15.225C18.493 15.2796 18.459 15.3338 18.4245 15.3878L10 10.0001L18.5264 15.225Z" fill="#00FF09"/>
<path d="M18.4339 15.373C18.3995 15.427 18.3646 15.4807 18.3292 15.534L10 10.0001L18.4339 15.373Z" fill="#00FF0D"/>
<path d="M18.3389 15.5194C18.3035 15.5728 18.2677 15.6258 18.2314 15.6785L10 10.0001L18.3389 15.5194Z" fill="#00FF11"/>
<path d="M18.2413 15.6641C18.205 15.7169 18.1683 15.7692 18.131 15.8213L10 10.0001L18.2413 15.6641Z" fill="#00FF15"/>
<path d="M18.1412 15.8071C18.104 15.8592 18.0663 15.9109 18.0282 15.9623L10 10.0001L18.1412 15.8071Z" fill="#00FF1A"/>
<path d="M18.0386 15.9483C18.0005 15.9997 17.9619 16.0508 17.9229 16.1015L10 10.0001L18.0386 15.9483Z" fill="#00FF1E"/>
<path d="M17.9335 16.0877C17.8946 16.1384 17.8551 16.1888 17.8152 16.2388L10 10.0001L17.9335 16.0877Z" fill="#00FF22"/>
<path d="M17.8261 16.2252C17.7862 16.2753 17.7459 16.325 17.7051 16.3743L10 10.0001L17.8261 16.2252Z" fill="#00FF26"/>
<path d="M17.7162 16.3608C17.6755 16.4102 17.6344 16.4592 17.5927 16.5078L10 10.0001L17.7162 16.3608Z" fill="#00FF2B"/>
<path d="M17.6041 16.4945C17.5625 16.5432 17.5205 16.5915 17.478 16.6393L10 10.0001L17.6041 16.4945Z" fill="#00FF2F"/>
<path d="M17.4896 16.6263C17.4472 16.6742 17.4043 16.7217 17.361 16.7688L10 10.0001L17.4896 16.6263Z" fill="#00FF33"/>
<path d="M17.3728 16.756C17.3295 16.8031 17.2859 16.8499 17.2417 16.8962L10 10.0001L17.3728 16.756Z" fill="#00FF37"/>
<path d="M17.2537 16.8836C17.2097 16.93 17.1652 16.976 17.1203 17.0216L10 10.0001L17.2537 16.8836Z" fill="#00FF3C"/>
<path d="M17.1325 17.0091C17.0876 17.0548 17.0424 17.1 16.9966 17.1448L10 10.0001L17.1325 17.0091Z" fill="#00FF40"/>
<path d="M17.0091 17.1326C16.9634 17.1774 16.9174 17.2218 16.8709 17.2658L10 10.0001L17.0091 17.1326Z" fill="#00FF44"/>
<path d="M16.8835 17.2538C16.8371 17.2978 16.7903 17.3415 16.743 17.3846L10 10.0001L16.8835 17.2538Z" fill="#00FF48"/>
<path d="M16.7559 17.3728C16.7087 17.4161 16.6611 17.4588 16.6131 17.5012L10 10.0001L16.7559 17.3728Z" fill="#00FF4D"/>
<path d="M16.6262 17.4896C16.5783 17.532 16.5299 17.574 16.4812 17.6154L10 10.0001L16.6262 17.4896Z" fill="#00FF51"/>
<path d="M16.4945 17.6041C16.4458 17.6457 16.3968 17.6868 16.3473 17.7274L10 10.0001L16.4945 17.6041Z" fill="#00FF55"/>
<path d="M16.3608 17.7163C16.3114 17.757 16.2616 17.7972 16.2115 17.837L10 10.0001L16.3608 17.7163Z" fill="#00FF59"/>
<path d="M16.2251 17.8261C16.1751 17.866 16.1246 17.9053 16.0738 17.9442L10 10.0001L16.2251 17.8261Z" fill="#00FF5E"/>
<path d="M16.0876 17.9336C16.0368 17.9725 15.9857 18.011 15.9342 18.049L10 10.0001L16.0876 17.9336Z" fill="#00FF62"/>
<path d="M15.9482 18.0386C15.8968 18.0767 15.845 18.1143 15.7928 18.1513L10 10.0001L15.9482 18.0386Z" fill="#00FF66"/>
<path d="M15.807 18.1412C15.7549 18.1784 15.7025 18.215 15.6497 18.2512L10 10.0001L15.807 18.1412Z" fill="#00FF6A"/>
<path d="M15.6641 18.2413C15.6113 18.2776 15.5582 18.3133 15.5048 18.3485L10 10.0001L15.6641 18.2413Z" fill="#00FF6F"/>
<path d="M15.5194 18.3389C15.466 18.3742 15.4123 18.409 15.3583 18.4433L10 10.0001L15.5194 18.3389Z" fill="#00FF73"/>
<path d="M15.373 18.434C15.319 18.4684 15.2647 18.5022 15.2101 18.5356L10 10.0001L15.373 18.434Z" fill="#00FF77"/>
<path d="M15.225 18.5265C15.1704 18.5599 15.1155 18.5928 15.0603 18.6252L10 10.0001L15.225 18.5265Z" fill="#00FF7B"/>
<path d="M15.0754 18.6163C15.0202 18.6488 14.9648 18.6808 14.909 18.7122L10 10.0001L15.0754 18.6163Z" fill="#00FF80"/>
<path d="M14.9242 18.7036C14.8685 18.7351 14.8125 18.7661 14.7562 18.7965L10 10.0001L14.9242 18.7036Z" fill="#00FF84"/>
<path d="M14.7716 18.7882C14.7153 18.8188 14.6588 18.8488 14.602 18.8782L10 10.0001L14.7716 18.7882Z" fill="#00FF88"/>
<path d="M14.6175 18.8702C14.5607 18.8997 14.5037 18.9287 14.4464 18.9572L10 10.0001L14.6175 18.8702Z" fill="#00FF8C"/>
<path d="M14.462 18.9494C14.4047 18.978 14.3472 19.006 14.2894 19.0334L10 10.0001L14.462 18.9494Z" fill="#00FF91"/>
<path d="M14.3051 19.0259C14.2473 19.0535 14.1893 19.0805 14.131 19.1069L10 10.0001L14.3051 19.0259Z" fill="#00FF95"/>
<path d="M14.1469 19.0997C14.0887 19.1262 14.0302 19.1522 13.9715 19.1776L10 10.0001L14.1469 19.0997Z" fill="#00FF99"/>
<path d="M13.9875 19.1707C13.9288 19.1962 13.8699 19.2211 13.8107 19.2455L10 10.0001L13.9875 19.1707Z" fill="#00FF9D"/>
<path d="M13.8268 19.2388C13.7677 19.2633 13.7084 19.2873 13.6488 19.3106L10 10.0001L13.8268 19.2388Z" fill="#00FFA2"/>
<path d="M13.665 19.3042C13.6055 19.3277 13.5457 19.3506 13.4857 19.3729L10 10.0001L13.665 19.3042Z" fill="#00FFA6"/>
<path d="M13.5021 19.3668C13.4421 19.3892 13.382 19.411 13.3216 19.4323L10 10.0001L13.5021 19.3668Z" fill="#00FFAA"/>
<path d="M13.3381 19.4265C13.2777 19.4478 13.2172 19.4686 13.1565 19.4888L10 10.0001L13.3381 19.4265Z" fill="#00FFAE"/>
<path d="M13.173 19.4833C13.1124 19.5036 13.0515 19.5233 12.9904 19.5425L10 10.0001L13.173 19.4833Z" fill="#00FFB3"/>
<path d="M13.0071 19.5372C12.946 19.5565 12.8848 19.5751 12.8234 19.5932L10 10.0001L13.0071 19.5372Z" fill="#00FFB7"/>
<path d="M12.8402 19.5883C12.7788 19.6064 12.7173 19.624 12.6556 19.641L10 10.0001L12.8402 19.5883Z" fill="#00FFBB"/>
<path d="M12.6724 19.6364C12.6107 19.6535 12.5489 19.67 12.4869 19.6859L10 10.0001L12.6724 19.6364Z" fill="#00FFBF"/>
<path d="M12.5038 19.6815C12.4418 19.6976 12.3797 19.713 12.3175 19.7278L10 10.0001L12.5038 19.6815Z" fill="#00FFC4"/>
<path d="M12.3345 19.7238C12.2722 19.7387 12.2099 19.753 12.1474 19.7668L10 10.0001L12.3345 19.7238Z" fill="#00FFC8"/>
<path d="M12.1644 19.763C12.1019 19.7769 12.0393 19.7901 11.9766 19.8028L10 10.0001L12.1644 19.763Z" fill="#00FFCC"/>
<path d="M11.9937 19.7993C11.931 19.8121 11.8681 19.8242 11.8052 19.8358L10 10.0001L11.9937 19.7993Z" fill="#00FFD0"/>
<path d="M11.8224 19.8326C11.7594 19.8443 11.6964 19.8553 11.6333 19.8658L10 10.0001L11.8224 19.8326Z" fill="#00FFD5"/>
<path d="M11.6505 19.8629C11.5874 19.8735 11.5241 19.8834 11.4608 19.8928L10 10.0001L11.6505 19.8629Z" fill="#00FFD9"/>
<path d="M11.4781 19.8902C11.4148 19.8997 11.3514 19.9085 11.288 19.9168L10 10.0001L11.4781 19.8902Z" fill="#00FFDD"/>
<path d="M11.3053 19.9145C11.2418 19.9229 11.1783 19.9306 11.1147 19.9377L10 10.0001L11.3053 19.9145Z" fill="#00FFE1"/>
<path d="M11.132 19.9358C11.0684 19.943 11.0048 19.9496 10.9411 19.9557L10 10.0001L11.132 19.9358Z" fill="#00FFE6"/>
<path d="M10.9585 19.954C10.8948 19.9601 10.831 19.9657 10.7672 19.9706L10 10.0001L10.9585 19.954Z" fill="#00FFEA"/>
<path d="M10.7846 19.9692C10.7208 19.9742 10.6569 19.9787 10.5931 19.9825L10 10.0001L10.7846 19.9692Z" fill="#00FFEE"/>
<path d="M10.6105 19.9814C10.5466 19.9853 10.4827 19.9886 10.4188 19.9913L10 10.0001L10.6105 19.9814Z" fill="#00FFF2"/>
<path d="M10.4362 19.9905C10.3723 19.9933 10.3083 19.9955 10.2443 19.9971L10 10.0001L10.4362 19.9905Z" fill="#00FFF7"/>
<path d="M10.2618 19.9966C10.1978 19.9983 10.1338 19.9994 10.0698 19.9998L10 10.0001L10.2618 19.9966Z" fill="#00FFFB"/>
<path d="M10.087 19.9997C10.023 20.0002 9.95901 20.0002 9.89502 19.9995L9.99974 10.0001L10.087 19.9997Z" fill="#00FFFF"/>
<path d="M9.91265 19.9997C9.84866 19.9991 9.78467 19.9979 9.7207 19.9962L9.99992 10.0001L9.91265 19.9997Z" fill="#00FBFF"/>
<path d="M9.73825 19.9966C9.67427 19.995 9.61032 19.9927 9.54639 19.9898L10 10.0001L9.73825 19.9966Z" fill="#00F7FF"/>
<path d="M9.56378 19.9905C9.49985 19.9877 9.43594 19.9843 9.37207 19.9803L9.99998 10.0001L9.56378 19.9905Z" fill="#00F2FF"/>
<path d="M9.38926 19.9814C9.32538 19.9775 9.26154 19.973 9.19775 19.9678L9.99974 10.0001L9.38926 19.9814Z" fill="#00EEFF"/>
<path d="M9.21516 19.9692C9.15137 19.9642 9.08762 19.9586 9.02393 19.9523L9.99975 10.0001L9.21516 19.9692Z" fill="#00EAFF"/>
<path d="M9.0415 19.954C8.9778 19.9479 8.91416 19.9411 8.85059 19.9338L9.99996 10.0001L9.0415 19.954Z" fill="#00E6FF"/>
<path d="M8.86778 19.9358C8.80419 19.9285 8.74068 19.9207 8.67725 19.9122L9.99981 10.0001L8.86778 19.9358Z" fill="#00E1FF"/>
<path d="M8.69449 19.9145C8.63104 19.9061 8.56767 19.8972 8.50439 19.8876L9.99975 10.0001L8.69449 19.9145Z" fill="#00DDFF"/>
<path d="M8.52211 19.8902C8.45882 19.8808 8.39562 19.8707 8.33252 19.86L10.0002 10.0001L8.52211 19.8902Z" fill="#00D9FF"/>
<path d="M8.34968 19.8629C8.28656 19.8523 8.22355 19.8412 8.16064 19.8294L10.0002 10.0001L8.34968 19.8629Z" fill="#00D5FF"/>
<path d="M8.17768 19.8326C8.11476 19.8209 8.05195 19.8087 7.98926 19.7958L10 10.0001L8.17768 19.8326Z" fill="#00D0FF"/>
<path d="M8.00611 19.7993C7.9434 19.7865 7.88081 19.7732 7.81836 19.7592L9.99979 10.0001L8.00611 19.7993Z" fill="#00CCFF"/>
<path d="M7.83546 19.763C7.77298 19.7492 7.71064 19.7347 7.64844 19.7197L9.99986 10.0001L7.83546 19.763Z" fill="#00C8FF"/>
<path d="M7.66573 19.7238C7.6035 19.7088 7.54142 19.6933 7.47949 19.6771L10.0002 10.0001L7.66573 19.7238Z" fill="#00C4FF"/>
<path d="M7.49594 19.6815C7.43399 19.6655 7.37219 19.6489 7.31055 19.6317L9.99974 10.0001L7.49594 19.6815Z" fill="#00BFFF"/>
<path d="M7.32757 19.6364C7.2659 19.6193 7.2044 19.6016 7.14307 19.5833L9.99995 10.0001L7.32757 19.6364Z" fill="#00BBFF"/>
<path d="M7.15962 19.5883C7.09826 19.5701 7.03707 19.5513 6.97607 19.532L9.99977 10.0001L7.15962 19.5883Z" fill="#00B7FF"/>
<path d="M6.99308 19.5372C6.93205 19.518 6.8712 19.4981 6.81055 19.4777L10.0001 10.0001L6.99308 19.5372Z" fill="#00B3FF"/>
<path d="M6.82698 19.4833C6.76629 19.463 6.7058 19.4421 6.64551 19.4206L10 10.0001L6.82698 19.4833Z" fill="#00AEFF"/>
<path d="M6.66179 19.4265C6.60147 19.4051 6.54135 19.3832 6.48145 19.3606L9.99986 10.0001L6.66179 19.4265Z" fill="#00AAFF"/>
<path d="M6.49802 19.3668C6.43808 19.3444 6.37835 19.3214 6.31885 19.2978L10.0001 10.0001L6.49802 19.3668Z" fill="#00A6FF"/>
<path d="M6.33517 19.3042C6.27562 19.2808 6.21631 19.2567 6.15723 19.2322L10.0002 10.0001L6.33517 19.3042Z" fill="#00A2FF"/>
<path d="M6.17324 19.2388C6.11411 19.2144 6.05523 19.1893 5.99658 19.1637L10.0001 10.0001L6.17324 19.2388Z" fill="#009DFF"/>
<path d="M6.01272 19.1707C5.95403 19.1451 5.89559 19.1191 5.8374 19.0924L10.0002 10.0001L6.01272 19.1707Z" fill="#0099FF"/>
<path d="M5.85312 19.0997C5.79489 19.0731 5.73691 19.046 5.6792 19.0184L10.0001 10.0001L5.85312 19.0997Z" fill="#0095FF"/>
<path d="M5.69494 19.0259C5.63718 18.9984 5.57968 18.9703 5.52246 18.9416L10.0001 10.0001L5.69494 19.0259Z" fill="#0091FF"/>
<path d="M5.53817 18.9494C5.4809 18.9208 5.4239 18.8917 5.36719 18.8621L10.0001 10.0001L5.53817 18.9494Z" fill="#008CFF"/>
<path d="M5.38232 18.8702C5.32556 18.8406 5.26908 18.8105 5.21289 18.7799L9.99981 10.0001L5.38232 18.8702Z" fill="#0088FF"/>
<path d="M5.22838 18.7882C5.17214 18.7577 5.11619 18.7266 5.06055 18.695L9.99997 10.0001L5.22838 18.7882Z" fill="#0084FF"/>
<path d="M5.07585 18.7036C5.02015 18.6721 4.96475 18.6401 4.90967 18.6075L10.0001 10.0001L5.07585 18.7036Z" fill="#0080FF"/>
<path d="M4.92473 18.6163C4.86959 18.5839 4.81476 18.5509 4.76025 18.5173L10.0001 10.0001L4.92473 18.6163Z" fill="#007BFF"/>
<path d="M4.77503 18.5265C4.72046 18.493 4.66622 18.4591 4.6123 18.4246L10 10.0001L4.77503 18.5265Z" fill="#0077FF"/>
<path d="M4.62674 18.434C4.57277 18.3996 4.51912 18.3647 4.46582 18.3293L9.99974 10.0001L4.62674 18.434Z" fill="#0072FF"/>
<path d="M4.48084 18.3389C4.42748 18.3036 4.37445 18.2678 4.32178 18.2314L10.0002 10.0001L4.48084 18.3389Z" fill="#006FFF"/>
<path d="M4.33588 18.2413C4.28314 18.2051 4.23075 18.1683 4.17871 18.1311L9.99994 10.0001L4.33588 18.2413Z" fill="#006AFF"/>
<path d="M4.19282 18.1412C4.14072 18.104 4.08897 18.0664 4.0376 18.0282L9.99985 10.0001L4.19282 18.1412Z" fill="#0066FF"/>
<path d="M4.05166 18.0386C4.00022 18.0006 3.94914 17.962 3.89844 17.9229L9.99989 10.0001L4.05166 18.0386Z" fill="#0062FF"/>
<path d="M3.91241 17.9336C3.86164 17.8946 3.81124 17.8552 3.76123 17.8153L10 10.0001L3.91241 17.9336Z" fill="#005EFF"/>
<path d="M3.77507 17.8261C3.72499 17.7863 3.67529 17.746 3.62598 17.7052L10.0002 10.0001L3.77507 17.8261Z" fill="#0059FF"/>
<path d="M3.63915 17.7163C3.58977 17.6756 3.54078 17.6344 3.49219 17.5928L9.99993 10.0001L3.63915 17.7163Z" fill="#0055FF"/>
<path d="M3.50562 17.6041C3.45696 17.5626 3.4087 17.5205 3.36084 17.478L10.0001 10.0001L3.50562 17.6041Z" fill="#0051FF"/>
<path d="M3.374 17.4896C3.32607 17.4472 3.27855 17.4043 3.23145 17.361L10.0002 10.0001L3.374 17.4896Z" fill="#004DFF"/>
<path d="M3.2443 17.3728C3.19711 17.3296 3.15035 17.2859 3.104 17.2418L10.0002 10.0001L3.2443 17.3728Z" fill="#0048FF"/>
<path d="M3.1165 17.2538C3.07008 17.2097 3.02408 17.1652 2.97852 17.1203L10 10.0001L3.1165 17.2538Z" fill="#0044FF"/>
<path d="M2.9911 17.1326C2.94546 17.0877 2.90024 17.0424 2.85547 16.9967L10.0002 10.0001L2.9911 17.1326Z" fill="#0040FF"/>
<path d="M2.86762 17.0091C2.82276 16.9635 2.77835 16.9174 2.73438 16.8709L10.0001 10.0001L2.86762 17.0091Z" fill="#003CFF"/>
<path d="M2.74604 16.8836C2.70199 16.8372 2.65839 16.7903 2.61523 16.7431L9.99979 10.0001L2.74604 16.8836Z" fill="#0037FF"/>
<path d="M2.62736 16.756C2.58413 16.7088 2.54134 16.6612 2.49902 16.6132L10.0001 10.0001L2.62736 16.756Z" fill="#0033FF"/>
<path d="M2.51059 16.6263C2.46819 16.5783 2.42624 16.53 2.38477 16.4813L10.0001 10.0001L2.51059 16.6263Z" fill="#002FFF"/>
<path d="M2.39574 16.4945C2.35417 16.4459 2.31308 16.3968 2.27246 16.3474L9.9998 10.0001L2.39574 16.4945Z" fill="#002BFF"/>
<path d="M2.28377 16.3608C2.24307 16.3115 2.20284 16.2617 2.16309 16.2115L10 10.0001L2.28377 16.3608Z" fill="#0026FF"/>
<path d="M2.17373 16.2252C2.13389 16.1751 2.09453 16.1247 2.05566 16.0738L9.99981 10.0001L2.17373 16.2252Z" fill="#0022FF"/>
<path d="M2.06658 16.0877C2.02762 16.0369 1.98915 15.9858 1.95117 15.9342L10.0001 10.0001L2.06658 16.0877Z" fill="#001EFF"/>
<path d="M1.96134 15.9483C1.92328 15.8968 1.8857 15.845 1.84863 15.7929L9.99991 10.0001L1.96134 15.9483Z" fill="#001AFF"/>
<path d="M1.859 15.8071C1.82184 15.755 1.78518 15.7025 1.74902 15.6497L10.0002 10.0001L1.859 15.8071Z" fill="#0015FF"/>
<path d="M1.75858 15.6641C1.72234 15.6114 1.6866 15.5583 1.65137 15.5049L9.99985 10.0001L1.75858 15.6641Z" fill="#0011FF"/>
<path d="M1.66106 15.5194C1.62574 15.4661 1.59093 15.4124 1.55664 15.3583L9.99992 10.0001L1.66106 15.5194Z" fill="#000DFF"/>
<path d="M1.56595 15.3731C1.53156 15.3191 1.4977 15.2648 1.46436 15.2101L9.99986 10.0001L1.56595 15.3731Z" fill="#0009FF"/>
<path d="M1.47374 15.225C1.4403 15.1705 1.40738 15.1156 1.375 15.0604L10.0001 10.0001L1.47374 15.225Z" fill="#0004FF"/>
<path d="M1.38344 15.0754C1.35096 15.0203 1.31901 14.9648 1.2876 14.9091L9.99974 10.0001L1.38344 15.0754Z" fill="#0000FF"/>
<path d="M1.29654 14.9243C1.26503 14.8686 1.23405 14.8126 1.20361 14.7563L10.0001 10.0001L1.29654 14.9243Z" fill="#0400FF"/>
<path d="M1.21156 14.7716C1.18103 14.7154 1.15103 14.6589 1.12158 14.6021L9.99974 10.0001L1.21156 14.7716Z" fill="#0900FF"/>
<path d="M1.12998 14.6175C1.10043 14.5608 1.07142 14.5037 1.04297 14.4464L10.0001 10.0001L1.12998 14.6175Z" fill="#0D00FF"/>
<path d="M1.05081 14.462C1.02225 14.4048 0.994247 14.3472 0.966797 14.2894L10.0001 10.0001L1.05081 14.462Z" fill="#1100FF"/>
<path d="M0.97405 14.3052C0.946499 14.2474 0.919503 14.1894 0.893066 14.1311L9.9999 10.0001L0.97405 14.3052Z" fill="#1500FF"/>
<path d="M0.900199 14.147C0.87366 14.0888 0.847681 14.0303 0.822266 13.9715L9.99981 10.0001L0.900199 14.147Z" fill="#1A00FF"/>
<path d="M0.829254 13.9875C0.803736 13.9289 0.778781 13.8699 0.754395 13.8108L9.99986 10.0001L0.829254 13.9875Z" fill="#1E00FF"/>
<path d="M0.761216 13.8269C0.736726 13.7678 0.712804 13.7084 0.689453 13.6488L10 10.0001L0.761216 13.8269Z" fill="#2200FF"/>
<path d="M0.695597 13.6651C0.672143 13.6055 0.64926 13.5458 0.626953 13.4858L9.99977 10.0001L0.695597 13.6651Z" fill="#2600FF"/>
<path d="M0.633376 13.5021C0.610964 13.4422 0.589128 13.382 0.567871 13.3217L10.0001 10.0001L0.633376 13.5021Z" fill="#2B00FF"/>
<path d="M0.573576 13.3381C0.552214 13.2778 0.531431 13.2173 0.51123 13.1565L9.99999 10.0001L0.573576 13.3381Z" fill="#2F00FF"/>
<path d="M0.516687 13.1731C0.49638 13.1124 0.476657 13.0515 0.45752 12.9905L9.99992 10.0001L0.516687 13.1731Z" fill="#3300FF"/>
<path d="M0.462709 13.0071C0.443465 12.9461 0.424807 12.8849 0.406738 12.8235L9.99988 10.0001L0.462709 13.0071Z" fill="#3700FF"/>
<path d="M0.411643 12.8402C0.393468 12.7788 0.375881 12.7173 0.358887 12.6556L9.99984 10.0001L0.411643 12.8402Z" fill="#3C00FF"/>
<path d="M0.363492 12.6724C0.34639 12.6108 0.32988 12.5489 0.313965 12.487L9.9998 10.0001L0.363492 12.6724Z" fill="#4000FF"/>
<path d="M0.318743 12.5039C0.30272 12.4419 0.287292 12.3798 0.272461 12.3175L10.0002 10.0001L0.318743 12.5039Z" fill="#4400FF"/>
<path d="M0.276422 12.3345C0.261482 12.2723 0.247141 12.2099 0.233398 12.1474L10.0001 10.0001L0.276422 12.3345Z" fill="#4800FF"/>
<path d="M0.237017 12.1644C0.223166 12.102 0.209915 12.0394 0.197266 11.9766L9.99998 10.0001L0.237017 12.1644Z" fill="#4D00FF"/>
<path d="M0.20053 11.9937C0.187771 11.931 0.175615 11.8682 0.164062 11.8052L9.99978 10.0001L0.20053 11.9937Z" fill="#5100FF"/>
<path d="M0.16745 11.8224C0.155788 11.7595 0.14473 11.6964 0.134277 11.6333L10 10.0001L0.16745 11.8224Z" fill="#5500FF"/>
<path d="M0.137289 11.6505C0.126727 11.5874 0.116771 11.5242 0.107422 11.4609L10.0001 10.0001L0.137289 11.6505Z" fill="#5900FF"/>
<path d="M0.110049 11.4781C0.10059 11.4149 0.0917385 11.3515 0.0834961 11.288L10.0002 10.0001L0.110049 11.4781Z" fill="#5E00FF"/>
<path d="M0.0857305 11.3053C0.0773774 11.2419 0.0696335 11.1783 0.0625 11.1147L10.0002 10.0001L0.0857305 11.3053Z" fill="#6200FF"/>
<path d="M0.0643347 11.1321C0.0570901 11.0685 0.0504561 11.0048 0.0444336 10.9411L10.0001 10.0001L0.0643347 11.1321Z" fill="#6600FF"/>
<path d="M0.0458625 10.9585C0.0397287 10.8948 0.0342066 10.8311 0.0292969 10.7672L9.99982 10.0001L0.0458625 10.9585Z" fill="#6A00FF"/>
<path d="M0.0308031 10.7846C0.025782 10.7208 0.0213735 10.657 0.0175781 10.5931L9.99998 10.0001L0.0308031 10.7846Z" fill="#6F00FF"/>
<path d="M0.0186694 10.6105C0.0147625 10.5467 0.0114689 10.4827 0.00878906 10.4188L10 10.0001L0.0186694 10.6105Z" fill="#7300FF"/>
<path d="M0.00946237 10.4362C0.00667091 10.3723 0.00449325 10.3084 0.00292969 10.2444L9.99994 10.0001L0.00946237 10.4362Z" fill="#7700FF"/>
<path d="M0.00318306 10.2618C0.00150785 10.1978 0.000446777 10.1339 0 10.0699L9.99976 10.0001L0.00318306 10.2618Z" fill="#7B00FF"/>
<path d="M0.000380772 10.0873C-0.000177693 10.0233 -0.000121846 9.95932 0.000548305 9.89533L10 10.0001L0.000380772 10.0873Z" fill="#8000FF"/>
<path d="M0 9.91279C0.000558462 9.8488 0.00173121 9.78481 0.00351807 9.72084L9.99962 10.0001L0 9.91279Z" fill="#8400FF"/>
<path d="M0.00341797 9.73828C0.00509318 9.67431 0.00738247 9.61035 0.0102855 9.54642L9.99999 10.0001L0.00341797 9.73828Z" fill="#8800FF"/>
<path d="M0.00927734 9.56386C0.0120688 9.49992 0.0154739 9.43602 0.0194923 9.37215L9.99976 10.0001L0.00927734 9.56386Z" fill="#8C00FF"/>
<path d="M0.0185547 9.38957C0.0224615 9.32569 0.0269815 9.26186 0.0321139 9.19807L9.9999 10.0001L0.0185547 9.38957Z" fill="#9100FF"/>
<path d="M0.0307617 9.21546C0.0357828 9.15166 0.0414161 9.08791 0.047661 9.02422L9.99994 10.0001L0.0307617 9.21546Z" fill="#9500FF"/>
<path d="M0.0458984 9.0416C0.0520322 8.9779 0.0587773 8.91426 0.0661328 8.85069L9.99986 10.0001L0.0458984 9.0416Z" fill="#9900FF"/>
<path d="M0.0644531 8.86802C0.0716977 8.80444 0.0795524 8.74092 0.0880163 8.67749L10.0002 10.0001L0.0644531 8.86802Z" fill="#9D00FF"/>
<path d="M0.0854492 8.69479C0.0938024 8.63134 0.102764 8.56798 0.112334 8.5047L9.9999 10.0001L0.0854492 8.69479Z" fill="#A200FF"/>
<path d="M0.109863 8.52196C0.119323 8.45867 0.129389 8.39547 0.140062 8.33237L10 10.0001L0.109863 8.52196Z" fill="#A600FF"/>
<path d="M0.137207 8.34958C0.147769 8.28646 0.158938 8.22344 0.17071 8.16054L10.0001 10.0001L0.137207 8.34958Z" fill="#AA00FF"/>
<path d="M0.16748 8.1777C0.179143 8.11477 0.191409 8.05196 0.204277 7.98927L10 10.0001L0.16748 8.1777Z" fill="#AE00FF"/>
<path d="M0.200684 8.00637C0.213442 7.94366 0.226803 7.88107 0.240763 7.81862L9.99993 10.0001L0.200684 8.00637Z" fill="#B300FF"/>
<path d="M0.236816 7.83566C0.250668 7.77318 0.265118 7.71084 0.280166 7.64864L9.99978 10.0001L0.236816 7.83566Z" fill="#B700FF"/>
<path d="M0.276367 7.6656C0.291307 7.60338 0.306843 7.54129 0.322975 7.47936L10.0001 10.0001L0.276367 7.6656Z" fill="#BB00FF"/>
<path d="M0.318359 7.49625C0.334383 7.43429 0.351 7.37249 0.36821 7.31085L9.99984 10.0001L0.318359 7.49625Z" fill="#BF00FF"/>
<path d="M0.36377 7.32767C0.380872 7.266 0.398565 7.2045 0.416848 7.14317L10.0001 10.0001L0.36377 7.32767Z" fill="#C400FF"/>
<path d="M0.411621 7.1599C0.429797 7.09854 0.448561 7.03736 0.467912 6.97636L9.99982 10.0001L0.411621 7.1599Z" fill="#C800FF"/>
<path d="M0.462891 6.993C0.482135 6.93196 0.501964 6.87112 0.522376 6.81046L10.0001 10.0001L0.462891 6.993Z" fill="#CC00FF"/>
<path d="M0.516602 6.82701C0.536908 6.76632 0.557796 6.70583 0.579264 6.64554L9.99984 10.0001L0.516602 6.82701Z" fill="#D000FF"/>
<path d="M0.57373 6.66198C0.595093 6.60166 0.617034 6.54154 0.63955 6.48164L10.0001 10.0001L0.57373 6.66198Z" fill="#D500FF"/>
<path d="M0.633301 6.49798C0.655713 6.43804 0.678699 6.37831 0.702258 6.31881L10 10.0001L0.633301 6.49798Z" fill="#D900FF"/>
<path d="M0.695801 6.33504C0.719255 6.2755 0.743281 6.21618 0.767875 6.1571L9.99998 10.0001L0.695801 6.33504Z" fill="#DD00FF"/>
<path d="M0.76123 6.17322C0.785721 6.1141 0.810778 6.05521 0.836399 5.99657L10 10.0001L0.76123 6.17322Z" fill="#E100FF"/>
<path d="M0.82959 6.01257C0.855108 5.95388 0.881189 5.89544 0.907829 5.83725L10.0002 10.0001L0.82959 6.01257Z" fill="#E600FF"/>
<path d="M0.900391 5.85312C0.926929 5.79489 0.954026 5.73691 0.981678 5.6792L10 10.0001L0.900391 5.85312Z" fill="#EA00FF"/>
<path d="M0.974121 5.69494C1.00167 5.63718 1.02978 5.57968 1.05843 5.52246L9.99997 10.0001L0.974121 5.69494Z" fill="#EE00FF"/>
<path d="M1.05078 5.53808C1.07934 5.48081 1.10844 5.42381 1.13809 5.3671L10.0001 10.0001L1.05078 5.53808Z" fill="#F200FF"/>
<path d="M1.12988 5.38257C1.15943 5.3258 1.18953 5.26932 1.22016 5.21313L9.99999 10.0001L1.12988 5.38257Z" fill="#F700FF"/>
<path d="M1.21191 5.22847C1.24245 5.17223 1.27353 5.11628 1.30514 5.06064L10.0001 10.0001L1.21191 5.22847Z" fill="#FB00FF"/>
<path d="M1.29639 5.07582C1.3279 5.02012 1.35995 4.96472 1.39252 4.90964L9.99994 10.0001L1.29639 5.07582Z" fill="#FF00FF"/>
<path d="M1.38379 4.92467C1.41627 4.86953 1.44928 4.8147 1.48281 4.76019L10.0001 10.0001L1.38379 4.92467Z" fill="#FF00FB"/>
<path d="M1.47363 4.77506C1.50707 4.7205 1.54103 4.66626 1.57551 4.61234L10 10.0001L1.47363 4.77506Z" fill="#FF00F7"/>
<path d="M1.56592 4.62706C1.6003 4.57309 1.63521 4.51944 1.67062 4.46614L9.99983 10.0001L1.56592 4.62706Z" fill="#FF00F2"/>
<path d="M1.66113 4.48068C1.69645 4.42732 1.73229 4.37429 1.76863 4.32162L9.99999 10.0001L1.66113 4.48068Z" fill="#FF00EE"/>
<path d="M1.75879 4.33599C1.79504 4.28325 1.83179 4.23086 1.86904 4.17883L10.0001 10.0001L1.75879 4.33599Z" fill="#FF00EA"/>
<path d="M1.85889 4.19302C1.89605 4.14092 1.93371 4.08918 1.97187 4.0378L10 10.0001L1.85889 4.19302Z" fill="#FF00E6"/>
<path d="M1.96143 4.05183C1.99949 4.00039 2.03805 3.94931 2.0771 3.89861L9.99999 10.0001L1.96143 4.05183Z" fill="#FF00E1"/>
<path d="M2.06641 3.91244C2.10536 3.86167 2.14481 3.81128 2.18473 3.76126L9.99994 10.0001L2.06641 3.91244Z" fill="#FF00DD"/>
<path d="M2.17383 3.77491C2.21367 3.72483 2.25398 3.67513 2.29478 3.62582L9.99991 10.0001L2.17383 3.77491Z" fill="#FF00D9"/>
<path d="M2.28369 3.63927C2.3244 3.58989 2.36558 3.5409 2.40722 3.49231L9.99994 10.0001L2.28369 3.63927Z" fill="#FF00D5"/>
<path d="M2.396 3.50558C2.43756 3.45691 2.47959 3.40865 2.52207 3.36079L10.0001 10.0001L2.396 3.50558Z" fill="#FF00D0"/>
<path d="M2.51025 3.37385C2.55266 3.32592 2.59552 3.2784 2.63884 3.23129L9.99981 10.0001L2.51025 3.37385Z" fill="#FF00CC"/>
<path d="M2.62744 3.24415C2.67068 3.19697 2.71436 3.1502 2.7585 3.10386L10.0002 10.0001L2.62744 3.24415Z" fill="#FF00C8"/>
<path d="M2.74609 3.11651C2.79015 3.07009 2.83464 3.02409 2.87958 2.97852L9.99984 10.0001L2.74609 3.11651Z" fill="#FF00C4"/>
<path d="M2.86768 2.99096C2.91253 2.94531 2.95782 2.9001 3.00355 2.85532L10.0002 10.0001L2.86768 2.99096Z" fill="#FF00BF"/>
<path d="M2.99072 2.86755C3.03637 2.82269 3.08244 2.77828 3.12894 2.73431L9.99981 10.0001L2.99072 2.86755Z" fill="#FF00BB"/>
<path d="M3.11621 2.74631C3.16263 2.70226 3.20947 2.65865 3.25673 2.6155L9.99976 10.0001L3.11621 2.74631Z" fill="#FF00B7"/>
<path d="M3.24414 2.62728C3.29132 2.58404 3.33892 2.54126 3.38692 2.49894L10 10.0001L3.24414 2.62728Z" fill="#FF00B3"/>
<path d="M3.37354 2.5105C3.42147 2.46809 3.4698 2.42615 3.51854 2.38467L9.99974 10.0001L3.37354 2.5105Z" fill="#FF00AE"/>
<path d="M3.50537 2.396C3.55403 2.35443 3.6031 2.31334 3.65255 2.27272L9.99985 10.0001L3.50537 2.396Z" fill="#FF00AA"/>
<path d="M3.63916 2.2838C3.68854 2.2431 3.73831 2.20287 3.78846 2.16312L9.99994 10.0001L3.63916 2.2838Z" fill="#FF00A6"/>
<path d="M3.7749 2.17397C3.82499 2.13413 3.87545 2.09478 3.92629 2.05591L10 10.0001L3.7749 2.17397Z" fill="#FF00A2"/>
<path d="M3.9126 2.06652C3.96337 2.02756 4.01451 1.98909 4.06602 1.95112L10.0002 10.0001L3.9126 2.06652Z" fill="#FF009D"/>
<path d="M4.05176 1.96149C4.1032 1.92342 4.15501 1.88585 4.20717 1.84878L9.99999 10.0001L4.05176 1.96149Z" fill="#FF0099"/>
<path d="M4.19287 1.8589C4.24497 1.82173 4.29743 1.78507 4.35023 1.74892L9.9999 10.0001L4.19287 1.8589Z" fill="#FF0095"/>
<path d="M4.33594 1.75879C4.38868 1.72254 4.44177 1.6868 4.49519 1.65157L10 10.0001L4.33594 1.75879Z" fill="#FF0091"/>
<path d="M4.48047 1.6612C4.53383 1.62588 4.58754 1.59107 4.64157 1.55678L9.99984 10.0001L4.48047 1.6612Z" fill="#FF008C"/>
<path d="M4.62695 1.56614C4.68093 1.53175 4.73523 1.49789 4.78985 1.46455L9.99995 10.0001L4.62695 1.56614Z" fill="#FF0088"/>
<path d="M4.7749 1.47365C4.82947 1.44021 4.88435 1.4073 4.93955 1.37492L9.99989 10.0001L4.7749 1.47365Z" fill="#FF0084"/>
<path d="M4.9248 1.38376C4.97995 1.35128 5.0354 1.31933 5.09115 1.28792L10.0002 10.0001L4.9248 1.38376Z" fill="#FF0080"/>
<path d="M5.07568 1.2965C5.13138 1.26498 5.18738 1.23401 5.24368 1.20357L9.99992 10.0001L5.07568 1.2965Z" fill="#FF007B"/>
<path d="M5.22852 1.21189C5.28476 1.18135 5.34129 1.15135 5.39811 1.1219L10.0001 10.0001L5.22852 1.21189Z" fill="#FF0077"/>
<path d="M5.38232 1.12995C5.43909 1.1004 5.49614 1.07139 5.55346 1.04294L9.99981 10.0001L5.38232 1.12995Z" fill="#FF0073"/>
<path d="M5.53809 1.05071C5.59536 1.02215 5.6529 0.994148 5.71071 0.966698L10.0001 10.0001L5.53809 1.05071Z" fill="#FF006F"/>
<path d="M5.69482 0.974203C5.75259 0.946652 5.81061 0.919656 5.86889 0.893219L9.99994 10.0001L5.69482 0.974203Z" fill="#FF006A"/>
<path d="M5.85303 0.900443C5.91126 0.873905 5.96975 0.847926 6.02848 0.82251L9.99996 10.0001L5.85303 0.900443Z" fill="#FF0066"/>
<path d="M6.0127 0.829452C6.07138 0.803934 6.13032 0.77898 6.18948 0.754593L10.0002 10.0001L6.0127 0.829452Z" fill="#FF0062"/>
<path d="M6.17334 0.761262C6.23246 0.736771 6.29182 0.712849 6.35141 0.689499L10.0002 10.0001L6.17334 0.761262Z" fill="#FF005E"/>
<path d="M6.33496 0.695879C6.3945 0.672425 6.45427 0.649543 6.51425 0.627235L9.99997 10.0001L6.33496 0.695879Z" fill="#FF0059"/>
<path d="M6.49805 0.63333C6.55799 0.610918 6.61815 0.589082 6.67851 0.567825L10.0001 10.0001L6.49805 0.63333Z" fill="#FF0055"/>
<path d="M6.66211 0.573636C6.72243 0.552274 6.78296 0.531492 6.84369 0.511292L10.0002 10.0001L6.66211 0.573636Z" fill="#FF0051"/>
<path d="M6.82715 0.516816C6.88784 0.49651 6.94872 0.476787 7.00979 0.457649L10.0002 10.0001L6.82715 0.516816Z" fill="#FF004D"/>
<path d="M6.99268 0.462884C7.05371 0.44364 7.11493 0.424982 7.17632 0.406914L9.99973 10.0001L6.99268 0.462884Z" fill="#FF0048"/>
<path d="M7.15967 0.411857C7.22103 0.393681 7.28256 0.376095 7.34426 0.3591L9.99982 10.0001L7.15967 0.411857Z" fill="#FF0044"/>
<path d="M7.32764 0.363752C7.38931 0.346649 7.45114 0.330139 7.51312 0.314224L10 10.0001L7.32764 0.363752Z" fill="#FF0040"/>
<path d="M7.49609 0.318576C7.55805 0.302552 7.62016 0.287124 7.68242 0.272293L9.99989 10.0001L7.49609 0.318576Z" fill="#FF003C"/>
<path d="M7.66553 0.276353C7.72776 0.261414 7.79013 0.247072 7.85263 0.23333L9.99998 10.0001L7.66553 0.276353Z" fill="#FF0037"/>
<path d="M7.83545 0.237094C7.89793 0.223242 7.96054 0.209991 8.02327 0.197342L9.99985 10.0001L7.83545 0.237094Z" fill="#FF0033"/>
<path d="M8.00635 0.200805C8.06906 0.188046 8.13189 0.17589 8.19484 0.164337L10 10.0001L8.00635 0.200805Z" fill="#FF002F"/>
<path d="M8.17773 0.167503C8.24066 0.155841 8.30369 0.144783 8.36683 0.134331L10.0001 10.0001L8.17773 0.167503Z" fill="#FF002B"/>
<path d="M8.34961 0.137198C8.41273 0.126635 8.47595 0.116679 8.53925 0.10733L10.0001 10.0001L8.34961 0.137198Z" fill="#FF0026"/>
<path d="M8.52197 0.109896C8.58527 0.100437 8.64865 0.0915859 8.71211 0.0833435L10.0001 10.0001L8.52197 0.109896Z" fill="#FF0022"/>
<path d="M8.69482 0.0856087C8.75827 0.0772555 8.8218 0.0695115 8.8854 0.0623779L10.0001 10.0001L8.69482 0.0856087Z" fill="#FF001E"/>
<path d="M8.86816 0.0643347C8.93175 0.0570902 8.9954 0.0504561 9.05911 0.0444336L10.0002 10.0001L8.86816 0.0643347Z" fill="#FF001A"/>
<path d="M9.0415 0.0460912C9.10521 0.0399575 9.16896 0.0344355 9.23277 0.0295258L9.99996 10.0001L9.0415 0.0460912Z" fill="#FF0015"/>
<path d="M9.21533 0.0308792C9.27913 0.0258582 9.34298 0.0214498 9.40686 0.0176544L9.99992 10.0001L9.21533 0.0308792Z" fill="#FF0011"/>
<path d="M9.38965 0.0187074C9.45352 0.0148006 9.51744 0.0115071 9.58138 0.00882721L10.0001 10.0001L9.38965 0.0187074Z" fill="#FF000D"/>
<path d="M9.56396 0.00956889C9.6279 0.00677748 9.69186 0.0046 9.75584 0.0030365L10.0002 10.0001L9.56396 0.00956889Z" fill="#FF0009"/>
<path d="M9.73828 0.00335863C9.80226 0.00168339 9.86624 0.000622263 9.93024 0.000175476L10.0001 9.99993L9.73828 0.00335863Z" fill="#FF0004"/>
<path d="M10 20C15.5228 20 20 15.5229 20 10C20 4.47718 15.5228 3.05176e-05 10 3.05176e-05C4.47715 3.05176e-05 0 4.47718 0 10C0 15.5229 4.47715 20 10 20Z" fill="url(#paint0_radial_1516_426)"/>
<defs>
<radialGradient id="paint0_radial_1516_426" cx="0" cy="0" r="1" gradientUnits="userSpaceOnUse" gradientTransform="translate(10 10) scale(10)">
<stop stop-color="white"/>
<stop offset="1" stop-color="white" stop-opacity="0"/>
</radialGradient>
</defs>
</svg>
