<svg xmlns="http://www.w3.org/2000/svg" fill="none" viewBox="-0.5 -0.5 24 24" height="24" width="24" id="Bed--Streamline-Rounded----Material-Symbols.svg">
  <path fill="#000" d="M1.9166666666666667 17.489583333333336V12.098958333333334C1.9166666666666667 11.69966875 1.996529375 11.324289583333332 2.15625 10.972916666666666C2.3159706250000003 10.621543749999999 2.5555539583333333 10.334043750000001 2.875 10.110416666666667V7.331250000000001C2.875 6.612500000000001 3.1185747916666666 6.009564583333334 3.605729166666667 5.522395833333333C4.092883541666667 5.035227083333334 4.695833333333334 4.791666666666667 5.414583333333334 4.791666666666667H9.727083333333335C10.07845625 4.791666666666667 10.40591875 4.871543750000001 10.709375000000001 5.03125C11.01283125 5.19095625 11.276372916666668 5.40658125 11.5 5.678125C11.723627083333334 5.40658125 11.98314375 5.19095625 12.278645833333334 5.03125C12.574147916666668 4.871543750000001 12.897585416666667 4.791666666666667 13.248958333333333 4.791666666666667H17.561458333333334C18.280208333333334 4.791666666666667 18.88716875 5.035227083333334 19.382291666666667 5.522395833333333C19.877414583333334 6.009564583333334 20.125 6.612500000000001 20.125 7.331250000000001V10.110416666666667C20.44446041666667 10.334043750000001 20.68404375 10.621543749999999 20.84375 10.972916666666666C21.003456250000003 11.324289583333332 21.083333333333336 11.69966875 21.083333333333336 12.098958333333334V17.489583333333336C21.083333333333336 17.69720625 21.015435416666666 17.868939583333333 20.879687500000003 18.004687500000003C20.743939583333333 18.140435416666666 20.57220625 18.208333333333336 20.364583333333336 18.208333333333336C20.156960416666667 18.208333333333336 19.985227083333335 18.140435416666666 19.849479166666665 18.004687500000003C19.713731250000002 17.868939583333333 19.645833333333336 17.69720625 19.645833333333336 17.489583333333336V16.291666666666668H3.354166666666667V17.489583333333336C3.354166666666667 17.69720625 3.2862831249999997 17.868939583333333 3.1505208333333337 18.004687500000003C3.0147585416666667 18.140435416666666 2.8430539583333334 18.208333333333336 2.635416666666667 18.208333333333336C2.427779375 18.208333333333336 2.256074791666667 18.140435416666666 2.1203125 18.004687500000003C1.9845502083333335 17.868939583333333 1.9166666666666667 17.69720625 1.9166666666666667 17.489583333333336ZM12.21875 9.703125H18.6875V7.331250000000001C18.6875 7.011789583333334 18.5796875 6.748247916666667 18.364062500000003 6.540625C18.1484375 6.333002083333334 17.88091875 6.229166666666667 17.561458333333334 6.229166666666667H13.177083333333334C12.905539583333333 6.229166666666667 12.677935416666667 6.3409562500000005 12.494270833333333 6.564583333333333C12.310606250000001 6.788210416666667 12.21875 7.04375 12.21875 7.331250000000001V9.703125ZM4.3125 9.703125H10.78125V7.331250000000001C10.78125 7.04375 10.68939375 6.788210416666667 10.505729166666667 6.564583333333333C10.322064583333333 6.3409562500000005 10.094460416666667 6.229166666666667 9.822916666666668 6.229166666666667H5.414583333333334C5.111127083333334 6.229166666666667 4.8515625 6.336979166666667 4.635937500000001 6.552604166666668C4.4203125 6.768229166666667 4.3125 7.027793750000001 4.3125 7.331250000000001V9.703125ZM3.354166666666667 14.854166666666668H19.645833333333336V12.098958333333334C19.645833333333336 11.827414583333333 19.553977083333336 11.599810416666667 19.3703125 11.416145833333333C19.18664791666667 11.232481250000001 18.95904375 11.140625 18.6875 11.140625H4.3125C4.040970625 11.140625 3.8133664583333333 11.232481250000001 3.6296875 11.416145833333333C3.446008541666667 11.599810416666667 3.354166666666667 11.827414583333333 3.354166666666667 12.098958333333334V14.854166666666668Z" stroke-width="1"></path>
</svg>