<svg viewBox="-0.5 -0.5 16 16" fill="none" xmlns="http://www.w3.org/2000/svg" id="Remote-Controller--Streamline-Solar-Broken.svg" height="16" width="16"><desc>Remote Controller Streamline Icon: https://streamlinehq.com</desc><path d="M12.2860625 9.551187500000001V5.4488125C12.2860625 3.5283124999999997 12.2860625 2.5680625 11.825125 1.87825C11.6255625 1.579625 11.369187499999999 1.32325 11.070625 1.1236875C10.380812500000001 0.6628125 9.4205 0.6628125 7.5 0.6628125C5.5794999999999995 0.6628125 4.6191875 0.6628125 3.9294374999999997 1.1236875C3.6308125 1.32325 3.374375 1.579625 3.1748749999999997 1.87825C2.7721875000000002 2.4808749999999997 2.7213125 3.289875 2.714875 4.765125M12.155875 12.2860625C12.087625 12.6153125 11.983625 12.884500000000001 11.825125 13.12175C11.6255625 13.4203125 11.369187499999999 13.67675 11.070562500000001 13.876312500000001C10.380812500000001 14.337187499999999 9.4205 14.337187499999999 7.5 14.337187499999999C5.5794999999999995 14.337187499999999 4.6191875 14.337187499999999 3.9294374999999997 13.876312500000001C3.6308125 13.67675 3.374375 13.4203125 3.1748749999999997 13.12175C2.7139375 12.4319375 2.7139375 11.471687500000002 2.7139375 9.551187500000001V7.5" stroke="#000000" stroke-linecap="round" stroke-width="1"></path><path d="M9.551187500000001 9.892999999999999C9.551187500000001 11.025875000000001 8.632875 11.944187500000002 7.5 11.944187500000002S5.4488125 11.025875000000001 5.4488125 9.892999999999999S6.367125 7.841875 7.5 7.841875S9.551187500000001 8.760187499999999 9.551187500000001 9.892999999999999Z" stroke="#000000" stroke-width="1"></path><path d="M5.4488125 3.0558125H9.551187500000001" stroke="#000000" stroke-linecap="round" stroke-width="1"></path><path fill="#000000" d="M4.765125 5.4488125C4.765125 5.9751875 5.334875 6.304125000000001 5.790687500000001 6.0409375C6.00225 5.9188125000000005 6.1325625 5.693125 6.1325625 5.4488125C6.1325625 4.9225 5.5628125 4.5935625 5.107 4.8566875C4.8954375 4.9788749999999995 4.765125 5.2045625 4.765125 5.4488125" stroke-width="1"></path><path fill="#000000" d="M6.81625 5.4488125C6.81625 5.9751875 7.3860625 6.304125000000001 7.841875 6.0409375C8.053437500000001 5.9188125000000005 8.18375 5.693125 8.18375 5.4488125C8.18375 4.9225 7.6139375 4.5935625 7.158125 4.8566875C6.946624999999999 4.9788749999999995 6.81625 5.2045625 6.81625 5.4488125" stroke-width="1"></path><path fill="#000000" d="M8.867437500000001 5.4488125C8.867437500000001 5.9751875 9.4371875 6.304125000000001 9.892999999999999 6.0409375C10.1045625 5.9188125000000005 10.234875 5.693125 10.234875 5.4488125C10.234875 4.9225 9.665125 4.5935625 9.2093125 4.8566875C8.99775 4.9788749999999995 8.867437500000001 5.2045625 8.867437500000001 5.4488125" stroke-width="1"></path></svg>