<svg width="28" height="28" viewBox="0 0 28 28" fill="none" xmlns="http://www.w3.org/2000/svg">
<circle cx="14" cy="14" r="14" fill="#CFC04A"/>
<g clip-path="url(#clip0_1718_1202)">
<path fill-rule="evenodd" clip-rule="evenodd" d="M15.25 6.5C15.25 6.16848 15.1183 5.85054 14.8839 5.61612C14.6495 5.3817 14.3315 5.25 14 5.25C13.6685 5.25 13.3505 5.3817 13.1161 5.61612C12.8817 5.85054 12.75 6.16848 12.75 6.5V14.8333C12.75 15.1649 12.8817 15.4828 13.1161 15.7172C13.3505 15.9516 13.6685 16.0833 14 16.0833C14.3315 16.0833 14.6495 15.9516 14.8839 15.7172C15.1183 15.4828 15.25 15.1649 15.25 14.8333V6.5ZM10.545 8.79167C10.6818 8.70078 10.7993 8.58384 10.8909 8.44753C10.9825 8.31121 11.0464 8.15819 11.0789 7.99719C11.1113 7.8362 11.1118 7.67039 11.0801 7.50923C11.0485 7.34807 10.9855 7.19471 10.8946 7.05792C10.8037 6.92112 10.6868 6.80357 10.5504 6.71197C10.4141 6.62037 10.2611 6.55652 10.1001 6.52405C9.93912 6.49159 9.77331 6.49116 9.61215 6.52278C9.45098 6.5544 9.29763 6.61745 9.16084 6.70833C7.95759 7.50634 6.9707 8.5899 6.28828 9.86226C5.60585 11.1346 5.24915 12.5562 5.25 14C5.25 18.8325 9.1675 22.75 14 22.75C18.8325 22.75 22.75 18.8325 22.75 14C22.75 10.955 21.1942 8.275 18.8392 6.70833C18.5629 6.52489 18.2251 6.45871 17.9 6.52435C17.575 6.58999 17.2893 6.78207 17.1058 7.05833C16.9224 7.3346 16.8562 7.67242 16.9219 7.99749C16.9875 8.32255 17.1796 8.60823 17.4558 8.79167C18.5747 9.53387 19.4247 10.6166 19.8802 11.8796C20.3357 13.1426 20.3723 14.5187 19.9847 15.8042C19.5971 17.0897 18.8059 18.2161 17.7281 19.0168C16.6504 19.8175 15.3435 20.2499 14.0008 20.2499C12.6582 20.2499 11.3513 19.8175 10.2735 19.0168C9.1958 18.2161 8.40455 17.0897 8.01695 15.8042C7.62934 14.5187 7.66599 13.1426 8.12146 11.8796C8.57693 10.6166 9.42618 9.53387 10.545 8.79167Z" fill="white"/>
</g>
<defs>
<clipPath id="clip0_1718_1202">
<rect width="20" height="20" fill="white" transform="translate(4 4)"/>
</clipPath>
</defs>
</svg>
