<svg width="26" height="24" viewBox="0 0 26 24" fill="none" xmlns="http://www.w3.org/2000/svg">
<g clip-path="url(#clip0_1715_714)">
<path fill-rule="evenodd" clip-rule="evenodd" d="M13 2C18.9832 2 23.8333 6.477 23.8333 12C23.8333 12.649 23.7661 13.284 23.6383 13.9C23.2342 15.835 21.19 16.691 19.4057 16.495L19.2161 16.47L17.3311 16.18C17.1118 16.1462 16.8869 16.1613 16.6751 16.2239C16.4633 16.2865 16.2708 16.3949 16.1135 16.54C15.7126 16.91 15.5209 17.419 15.7906 17.916C16.2489 18.762 16.2554 19.728 15.8502 20.519C15.3085 21.58 14.2025 22 13 22C7.01671 22 2.16663 17.523 2.16663 12C2.16663 6.477 7.01671 2 13 2ZM8.12496 11C7.91156 11 7.70025 11.0388 7.5031 11.1142C7.30594 11.1896 7.12681 11.3001 6.97591 11.4393C6.82502 11.5786 6.70532 11.744 6.62365 11.926C6.54199 12.108 6.49996 12.303 6.49996 12.5C6.49996 12.697 6.54199 12.892 6.62365 13.074C6.70532 13.256 6.82502 13.4214 6.97591 13.5607C7.12681 13.6999 7.30594 13.8104 7.5031 13.8858C7.70025 13.9612 7.91156 14 8.12496 14C8.55594 14 8.96926 13.842 9.27401 13.5607C9.57875 13.2794 9.74996 12.8978 9.74996 12.5C9.74996 12.1022 9.57875 11.7206 9.27401 11.4393C8.96926 11.158 8.55594 11 8.12496 11ZM15.7083 7C15.2773 7 14.864 7.15804 14.5592 7.43934C14.2545 7.72064 14.0833 8.10218 14.0833 8.5C14.0833 8.89782 14.2545 9.27936 14.5592 9.56066C14.864 9.84196 15.2773 10 15.7083 10C16.1393 10 16.5526 9.84196 16.8573 9.56066C17.1621 9.27936 17.3333 8.89782 17.3333 8.5C17.3333 8.10218 17.1621 7.72064 16.8573 7.43934C16.5526 7.15804 16.1393 7 15.7083 7ZM10.2916 7C9.86065 7 9.44732 7.15804 9.14258 7.43934C8.83783 7.72064 8.66663 8.10218 8.66663 8.5C8.66663 8.89782 8.83783 9.27936 9.14258 9.56066C9.44732 9.84196 9.86065 10 10.2916 10C10.7226 10 11.1359 9.84196 11.4407 9.56066C11.7454 9.27936 11.9166 8.89782 11.9166 8.5C11.9166 8.10218 11.7454 7.72064 11.4407 7.43934C11.1359 7.15804 10.7226 7 10.2916 7Z" fill="#634F4F"/>
</g>
<defs>
<clipPath id="clip0_1715_714">
<rect width="26" height="24" fill="white"/>
</clipPath>
</defs>
</svg>
