<svg xmlns="http://www.w3.org/2000/svg" viewBox="-0.5 -0.5 24 24" fill="currentColor" id="Alarm--Streamline-Phosphor.svg" height="24" width="24"><desc>Alarm Streamline Icon: https://streamlinehq.com</desc><path d="M11.49991015625 2.6456468749999997c-7.43591796875 0 -12.083364453125 8.049613671874999 -8.36540546875 14.489308203125 3.717958984375 6.439685546875 13.012851953124999 6.439685546875 16.7308109375 0 0.8478015625 -1.468433203125 1.29412734375 -3.1341632812499998 1.29412734375 -4.82976640625 -0.006100390625 -5.332289453125 -4.32725234375 -9.65344140625 -9.6595328125 -9.659541796875Zm0 17.70915546875c-6.1965953124999995 -0.000278515625 -10.06952578125 -6.708462109375 -6.97099453125 -12.074739453125 3.098540234375 -5.366268359375001 10.844284374999999 -5.36591796875 13.942339453125001 0.00062890625 0.7063875000000001 1.22361796875 1.0782687499999999 2.6116140625 1.0782687499999999 4.0244968750000005 -0.0049953125 4.4436089843749995 -3.6060046875 8.044618359374999 -8.049613671874999 8.049613671874999ZM4.824762109375 2.410193359375 1.6049238281249998 5.630040625c-0.438410546875 0.438410546875 -1.187006640625 0.237825390625 -1.3474765625 -0.361055078125 -0.07448046875 -0.277940625 0.004986328125 -0.574496875 0.20845546874999998 -0.777966015625l3.21983828125 -3.21983828125c0.438410546875 -0.438410546875 1.187006640625 -0.237825390625 1.3474765625 0.361055078125 0.07448046875 0.27793164062500003 -0.004986328125 0.574496875 -0.20845546874999998 0.77795703125Zm17.70915546875 3.219847265625c-0.31443515625 0.314785546875 -0.824594921875 0.314785546875 -1.13902109375 0l-3.219847265625 -3.219847265625c-0.438410546875 -0.4384015625 -0.237825390625 -1.187006640625 0.361055078125 -1.347467578125 0.277940625 -0.07448046875 0.574496875 0.004986328125 0.777966015625 0.20845546874999998l3.219847265625 3.21983828125c0.3147765625 0.31443515625 0.3147765625 0.824594921875 0 1.13902109375Zm-5.399276953125 5.870183984375c0.61965234375 0 1.006941796875 0.6708003906250001 0.697115625 1.20744609375 -0.14378593750000002 0.249037890625 -0.40954375 0.40246406249999994 -0.697115625 0.402473046875h-5.63473046875c-0.44458281250000004 0.000026953125 -0.8049640625 -0.36037226562499997 -0.8049640625 -0.804955078125v-5.63473046875c0 -0.619661328125 0.6708003906250001 -1.00695078125 1.20744609375 -0.697115625 0.249055859375 0.14378593750000002 0.402473046875 0.40952578125 0.402473046875 0.697115625v4.82976640625Z" stroke-width="1"></path></svg>